<?xml version="1.0" encoding="utf-8"?>
<!-- Generator: Adobe Illustrator 26.0.1, SVG Export Plug-In . SVG Version: 6.00 Build 0)  -->
<svg version="1.1" id="Layer_1" xmlns="http://www.w3.org/2000/svg" xmlns:xlink="http://www.w3.org/1999/xlink" x="0px" y="0px"
	 viewBox="0 0 264 280" style="enable-background:new 0 0 264 280;" xml:space="preserve">
<style type="text/css">
	.st0{fill-rule:evenodd;clip-rule:evenodd;fill:#E6E6E6;}
	.st1{filter:url(#Adobe_OpacityMaskFilter);}
	.st2{fill-rule:evenodd;clip-rule:evenodd;fill:#FFFFFF;}
	.st3{mask:url(#react-mask-70579563_00000000217211619731406300000008580735213851653534_);}
	.st4{fill-rule:evenodd;clip-rule:evenodd;fill:#0091AD;}
	.st5{filter:url(#Adobe_OpacityMaskFilter_00000158009861640405250480000017254153578292631970_);}
	.st6{mask:url(#react-mask-70579564_00000178906453079315450140000013120709624945005727_);}
	.st7{fill-rule:evenodd;clip-rule:evenodd;fill:#D0C6AC;}
	.st8{filter:url(#Adobe_OpacityMaskFilter_00000008866864437199631940000003560371944560182959_);}
	.st9{mask:url(#react-mask-70579565_00000162337107499182759920000000806652180057620887_);}
	.st10{fill-rule:evenodd;clip-rule:evenodd;fill:#EDB98A;}
	.st11{filter:url(#Adobe_OpacityMaskFilter_00000011712778036200712130000005501097700724594090_);}
	
		.st12{mask:url(#react-mask-70579565_00000178188558633318298530000005270797489248608914_);fill-rule:evenodd;clip-rule:evenodd;fill-opacity:0.1;}
	.st13{filter:url(#Adobe_OpacityMaskFilter_00000039820770644691717890000013366152826998830726_);}
	.st14{mask:url(#react-mask-70579567_00000003789275456765422870000002043030988299810212_);}
	.st15{fill-rule:evenodd;clip-rule:evenodd;fill:#262E33;}
	.st16{fill-rule:evenodd;clip-rule:evenodd;fill:#3A4C5A;}
	.st17{fill-rule:evenodd;clip-rule:evenodd;fill:#2F4351;}
	.st18{fill-rule:evenodd;clip-rule:evenodd;fill:#F2F2F2;}
	.st19{fill-rule:evenodd;clip-rule:evenodd;fill-opacity:0.7;}
	.st20{fill-rule:evenodd;clip-rule:evenodd;fill-opacity:0.16;}
	.st21{fill-rule:evenodd;clip-rule:evenodd;fill-opacity:0.6;}
	.st22{fill-opacity:0.6;}
	.st23{filter:url(#Adobe_OpacityMaskFilter_00000138574295709048662760000011659453767230743442_);}
	.st24{mask:url(#react-mask-70579568_00000094607291077426873970000001402259011466854538_);}
	.st25{fill-rule:evenodd;clip-rule:evenodd;fill:#944F23;}
	.st26{filter:url(#Adobe_OpacityMaskFilter_00000031899409751565586770000016678787730626137781_);}
	.st27{mask:url(#react-mask-70579569_00000142137070128182187990000017874208388532685463_);}
	.st28{fill-rule:evenodd;clip-rule:evenodd;fill:#4A312C;}
	.st29{fill-rule:evenodd;clip-rule:evenodd;fill-opacity:0.24;}
</style>
<desc>Created with getavataaars.com</desc>
<g id="Avataaar_00000047780029556785040450000012164915437856913807_">
	<g id="Avataaar_x2F_Circle" transform="translate(-825.000000, -1100.000000)">
		<g transform="translate(825.000000, 1100.000000)">
			<g id="Circle" transform="translate(12.000000, 40.000000)">
				<g id="Circle-Background">
					
						<circle id="react-path-70579560_00000079447266489283634340000011108609649178408369_" class="st0" cx="120" cy="120" r="120"/>
				</g>
				<defs>
					<filter id="Adobe_OpacityMaskFilter" filterUnits="userSpaceOnUse" x="0" y="0" width="240" height="240">
						<feColorMatrix  type="matrix" values="1 0 0 0 0  0 1 0 0 0  0 0 1 0 0  0 0 0 1 0"/>
					</filter>
				</defs>
				
					<mask maskUnits="userSpaceOnUse" x="0" y="0" width="240" height="240" id="react-mask-70579563_00000000217211619731406300000008580735213851653534_">
					<g class="st1">
						
							<circle id="react-path-70579560_00000134211655178500456030000001683752304852135598_" class="st2" cx="120" cy="120" r="120"/>
					</g>
				</mask>
				<g id="Color_x2F_Palette_x2F_Blue-01" class="st3">
					<rect id="_xD83D__xDD8D_Color" class="st4" width="240" height="240"/>
				</g>
			</g>
			<g id="Mask">
			</g>
			<defs>
				
					<filter id="Adobe_OpacityMaskFilter_00000073719292160861950430000005656487455041226386_" filterUnits="userSpaceOnUse" x="0" y="18" width="322" height="298">
					<feColorMatrix  type="matrix" values="1 0 0 0 0  0 1 0 0 0  0 0 1 0 0  0 0 0 1 0"/>
				</filter>
			</defs>
			
				<mask maskUnits="userSpaceOnUse" x="0" y="18" width="322" height="298" id="react-mask-70579564_00000178906453079315450140000013120709624945005727_">
				<g style="filter:url(#Adobe_OpacityMaskFilter_00000073719292160861950430000005656487455041226386_);">
					<path id="react-path-70579561_00000000183976088120147220000001623607263400900994_" class="st2" d="M12,160
						c0,66.3,53.7,120,120,120s120-53.7,120-120h12V0H0v160H12z"/>
				</g>
			</mask>
			<g id="Avataaar" class="st6">
				<g id="Body" transform="translate(32.000000, 36.000000)">
					<g>
						<path id="react-path-70579562_00000033341251249041710270000017357492256605779353_" class="st7" d="M124,144.6V163h4l0,0
							c39.8,0,72,32.2,72,72v9H0v-9c0-39.8,32.2-72,72-72l0,0h4v-18.4c-17.2-8.2-29.6-24.9-31.7-44.7C38.5,99.1,34,94.1,34,88V74
							c0-5.9,4.3-10.9,10-11.8V56l0,0c0-30.9,25.1-56,56-56l0,0l0,0c30.9,0,56,25.1,56,56v6.2c5.7,1,10,5.9,10,11.8v14
							c0,6.1-4.5,11.1-10.3,11.9C153.6,119.7,141.2,136.4,124,144.6z"/>
					</g>
					<defs>
						
							<filter id="Adobe_OpacityMaskFilter_00000072255723044256307050000017519343381111302791_" filterUnits="userSpaceOnUse" x="0" y="0" width="264" height="280">
							<feColorMatrix  type="matrix" values="1 0 0 0 0  0 1 0 0 0  0 0 1 0 0  0 0 0 1 0"/>
						</filter>
					</defs>
					
						<mask maskUnits="userSpaceOnUse" x="0" y="0" width="264" height="280" id="react-mask-70579565_00000162337107499182759920000000806652180057620887_">
						<g style="filter:url(#Adobe_OpacityMaskFilter_00000072255723044256307050000017519343381111302791_);">
							<path id="react-path-70579562_00000057116235799162266500000016256262447176225202_" class="st2" d="M124,144.6V163h4l0,0
								c39.8,0,72,32.2,72,72v9H0v-9c0-39.8,32.2-72,72-72l0,0h4v-18.4c-17.2-8.2-29.6-24.9-31.7-44.7C38.5,99.1,34,94.1,34,88V74
								c0-5.9,4.3-10.9,10-11.8V56l0,0c0-30.9,25.1-56,56-56l0,0l0,0c30.9,0,56,25.1,56,56v6.2c5.7,1,10,5.9,10,11.8v14
								c0,6.1-4.5,11.1-10.3,11.9C153.6,119.7,141.2,136.4,124,144.6z"/>
						</g>
					</mask>
					<g id="Skin_x2F__xD83D__xDC76__xD83C__xDFFD_-03-Brown" class="st9">
						<g id="Color" transform="translate(0.000000, 0.000000)">
							<rect class="st10" width="264" height="280"/>
						</g>
					</g>
					<defs>
						
							<filter id="Adobe_OpacityMaskFilter_00000093151038634482367610000010682494189404901264_" filterUnits="userSpaceOnUse" x="44" y="79" width="112" height="79">
							<feColorMatrix  type="matrix" values="1 0 0 0 0  0 1 0 0 0  0 0 1 0 0  0 0 0 1 0"/>
						</filter>
					</defs>
					
						<mask maskUnits="userSpaceOnUse" x="44" y="79" width="112" height="79" id="react-mask-70579565_00000178188558633318298530000005270797489248608914_">
						<g style="filter:url(#Adobe_OpacityMaskFilter_00000093151038634482367610000010682494189404901264_);">
							<path id="react-path-70579562_00000126298657320158100320000002233390644178999225_" class="st2" d="M124,144.6V163h4l0,0
								c39.8,0,72,32.2,72,72v9H0v-9c0-39.8,32.2-72,72-72l0,0h4v-18.4c-17.2-8.2-29.6-24.9-31.7-44.7C38.5,99.1,34,94.1,34,88V74
								c0-5.9,4.3-10.9,10-11.8V56l0,0c0-30.9,25.1-56,56-56l0,0l0,0c30.9,0,56,25.1,56,56v6.2c5.7,1,10,5.9,10,11.8v14
								c0,6.1-4.5,11.1-10.3,11.9C153.6,119.7,141.2,136.4,124,144.6z"/>
						</g>
					</mask>
					<path id="Neck-Shadow" class="st12" d="M156,79v23c0,30.9-25.1,56-56,56s-56-25.1-56-56V79v15c0,30.9,25.1,56,56,56
						s56-25.1,56-56V79z"/>
				</g>
				<g id="Clothing_x2F_Blazer-_x2B_-Sweater" transform="translate(0.000000, 170.000000)">
					<g id="Clothes">
						<path id="react-path-70579566_00000014609194787553264420000007171993158767462312_" class="st0" d="M105.2,29.1H104l0,0
							c-39.8,0-72,32.2-72,72v8.9h200v-8.9c0-39.8-32.2-72-72-72l0,0h-1.2c0.1,1,0.2,2,0.2,3c0,13.8-12.1,25-27,25s-27-11.2-27-25
							C105,31,105.1,30,105.2,29.1z"/>
					</g>
					<defs>
						
							<filter id="Adobe_OpacityMaskFilter_00000069356242716444360250000007262391851065728697_" filterUnits="userSpaceOnUse" x="0" y="0" width="264" height="110">
							<feColorMatrix  type="matrix" values="1 0 0 0 0  0 1 0 0 0  0 0 1 0 0  0 0 0 1 0"/>
						</filter>
					</defs>
					
						<mask maskUnits="userSpaceOnUse" x="0" y="0" width="264" height="110" id="react-mask-70579567_00000003789275456765422870000002043030988299810212_">
						<g style="filter:url(#Adobe_OpacityMaskFilter_00000069356242716444360250000007262391851065728697_);">
							<path id="react-path-70579566_00000170961131072062801490000001406203087120858011_" class="st2" d="M105.2,29.1H104l0,0
								c-39.8,0-72,32.2-72,72v8.9h200v-8.9c0-39.8-32.2-72-72-72l0,0h-1.2c0.1,1,0.2,2,0.2,3c0,13.8-12.1,25-27,25s-27-11.2-27-25
								C105,31,105.1,30,105.2,29.1z"/>
						</g>
					</mask>
					<g id="Color_x2F_Palette_x2F_Black" class="st14">
						<rect id="_xD83D__xDD8D_Color_00000092433319192796397850000000683516812251079098_" class="st15" width="264" height="110"/>
					</g>
					<g id="Blazer" transform="translate(32.000000, 28.000000)">
						<path id="Saco" class="st16" d="M68.8,1.1C30.5,2.8,0,34.4,0,73.1V82h69.4C66,69.9,64,55.7,64,40.5
							C64,26.2,65.7,12.7,68.8,1.1z M131.6,82H200v-8.9c0-38.3-30-69.7-67.8-71.9c3,11.6,4.8,25,4.8,39.3
							C137,55.7,135,69.9,131.6,82z"/>
						<path id="Pocket-hanky" class="st0" d="M149,58l9.6-7.2l0,0c1.4-1.1,3.4-1.1,4.9,0L170,56L149,58z"/>
						<path id="Wing" class="st17" d="M69,0c-4,19.3-2.3,46.7,5,82H58L44,46l6-9l-6-6L63,1C65,0.4,67,0,69,0z"/>
						<path id="Wing_00000050646275585793685520000005813940490558378422_" class="st17" d="M131,0c4,19.3,2.3,46.7-5,82h16l14-36
							l-6-9l6-6L137,1C135,0.4,133,0,131,0z"/>
					</g>
					<path id="Collar" class="st18" d="M156,21.5c6.8,4.6,11,11.1,11,18.3c0,7.4-4.4,14.1-11.5,18.7l-5.9-4.7l-4.6,0.3l1-3.2
						l-0.1-0.1c6.1-3.1,10.1-8.3,10.1-14.1V21.5z M108,21.5c-6.8,4.6-11,11.1-11,18.3c0,7.4,4.4,14.1,11.5,18.7l5.9-4.7l4.6,0.3
						l-1-3.2l0.1-0.1C112,47.9,108,42.7,108,36.9V21.5z"/>
				</g>
				<g id="Face" transform="translate(76.000000, 82.000000)">
					<g id="Mouth_x2F_Default" transform="translate(2.000000, 52.000000)">
						<path id="Mouth" class="st19" d="M40,15c0,7.7,6.3,14,14,14l0,0c7.7,0,14-6.3,14-14"/>
					</g>
					<g id="Nose_x2F_Default" transform="translate(28.000000, 40.000000)">
						<path id="Nose" class="st20" d="M16,8c0,4.4,5.4,8,12,8l0,0c6.6,0,12-3.6,12-8"/>
					</g>
					<g id="Eyes_x2F_Happy-_xD83D__xDE01_" transform="translate(0.000000, 8.000000)">
						<path id="Squint" class="st21" d="M16.2,22.4C18,18.6,22.2,16,27,16c4.8,0,9,2.6,10.8,6.4c0.6,1.1-0.2,2-1,1.4
							c-2.5-2.1-5.9-3.4-9.8-3.4c-3.7,0-7.1,1.2-9.6,3.2C16.5,24.3,15.6,23.6,16.2,22.4z"/>
						<path id="Squint_00000167371515821352526010000008255925796354930593_" class="st21" d="M74.2,22.4C76,18.6,80.2,16,85,16
							c4.8,0,9,2.6,10.8,6.4c0.6,1.1-0.2,2-1,1.4c-2.5-2.1-5.9-3.4-9.8-3.4c-3.7,0-7.1,1.2-9.6,3.2C74.5,24.3,73.6,23.6,74.2,22.4z"
							/>
					</g>
					<g id="Eyebrow_x2F_Outline_x2F_Default">
						<g id="I-Browse" transform="translate(12.000000, 6.000000)">
							<path id="Eyebrow" class="st22" d="M3.6,11.2c3.9-5.5,14.6-8.6,23.9-6.3c1.1,0.3,2.2-0.4,2.4-1.5c0.3-1.1-0.4-2.2-1.5-2.4
								C17.7-1.7,5.3,1.9,0.4,8.8c-0.6,0.9-0.4,2.1,0.5,2.8S3,12.1,3.6,11.2z"/>
							<path id="Eyebrow_00000050661298281050730100000002510938358490767255_" class="st22" d="M84.4,11.2
								c-3.9-5.5-14.6-8.6-23.9-6.3c-1.1,0.3-2.2-0.4-2.4-1.5s0.4-2.2,1.5-2.4c10.7-2.6,23.2,0.9,28.1,7.9c0.6,0.9,0.4,2.1-0.5,2.8
								S85,12.1,84.4,11.2z"/>
						</g>
					</g>
				</g>
				<g id="Top">
					<g id="Mask_00000002364480131271868800000006937941702038971280_">
					</g>
					<defs>
						
							<filter id="Adobe_OpacityMaskFilter_00000143603676889855039080000008533218492627031196_" filterUnits="userSpaceOnUse" x="58" y="18" width="264" height="280">
							<feColorMatrix  type="matrix" values="1 0 0 0 0  0 1 0 0 0  0 0 1 0 0  0 0 0 1 0"/>
						</filter>
					</defs>
					
						<mask maskUnits="userSpaceOnUse" x="58" y="18" width="264" height="280" id="react-mask-70579568_00000094607291077426873970000001402259011466854538_">
						<g style="filter:url(#Adobe_OpacityMaskFilter_00000143603676889855039080000008533218492627031196_);">
							<rect id="react-path-70579570_00000003822934865940351990000000943330587787094458_" class="st2" width="264" height="280"/>
						</g>
					</mask>
					<g id="Top_x2F_Long-Hair_x2F_Straight" class="st24">
						<g transform="translate(-1.000000, 0.000000)">
							<g id="Hair" transform="translate(59.000000, 18.000000)">
								<g id="Mask-Hair">
									<path id="react-path-70579571_00000054229159413408292340000010070657678139923873_" class="st25" d="M133.5,81.3
										c3.9,2,6.5,6,6.5,10.7v13c0,6-4.4,11-10.2,11.9c-1.7,20.2-14.3,37.4-31.8,45.7l0,0V181h4c17.5,0,33.5,6.2,46,16.6V74
										c0-20.4-8.3-38.9-21.7-52.3S94.4,0,74,0C33.1,0,0,33.1,0,74v183.7c13.6-1.9,24-13.6,24-27.7v-45.6c6.9-2.2,14.3-3.4,22-3.4
										h4v-18.4c-11.2-5.3-20.4-14.3-26-25.4v-62c9.1-3,18.8-7.2,28.3-12.8c15.4-8.9,28.1-19.6,36.7-30.1c1.8,5.2,4.1,10.4,7,15.5
										c8.8,15.2,21.1,26.3,33.9,32v0.2c0.4,0.1,0.8,0.2,1.2,0.3C132,80.7,132.7,81.1,133.5,81.3z"/>
								</g>
								<defs>
									
										<filter id="Adobe_OpacityMaskFilter_00000021811207983046532560000000801522683416360106_" filterUnits="userSpaceOnUse" x="0" y="0" width="264" height="280">
										<feColorMatrix  type="matrix" values="1 0 0 0 0  0 1 0 0 0  0 0 1 0 0  0 0 0 1 0"/>
									</filter>
								</defs>
								
									<mask maskUnits="userSpaceOnUse" x="0" y="0" width="264" height="280" id="react-mask-70579569_00000142137070128182187990000017874208388532685463_">
									<g style="filter:url(#Adobe_OpacityMaskFilter_00000021811207983046532560000000801522683416360106_);">
										<path id="react-path-70579571_00000167385857157058711500000016276289709439806119_" class="st2" d="M133.5,81.3
											c3.9,2,6.5,6,6.5,10.7v13c0,6-4.4,11-10.2,11.9c-1.7,20.2-14.3,37.4-31.8,45.7l0,0V181h4c17.5,0,33.5,6.2,46,16.6V74
											c0-20.4-8.3-38.9-21.7-52.3S94.4,0,74,0C33.1,0,0,33.1,0,74v183.7c13.6-1.9,24-13.6,24-27.7v-45.6
											c6.9-2.2,14.3-3.4,22-3.4h4v-18.4c-11.2-5.3-20.4-14.3-26-25.4v-62c9.1-3,18.8-7.2,28.3-12.8
											c15.4-8.9,28.1-19.6,36.7-30.1c1.8,5.2,4.1,10.4,7,15.5c8.8,15.2,21.1,26.3,33.9,32v0.2c0.4,0.1,0.8,0.2,1.2,0.3
											C132,80.7,132.7,81.1,133.5,81.3z"/>
									</g>
								</mask>
								<g id="Skin_x2F__xD83D__xDC76__xD83C__xDFFD_-03-Brown_00000011028076477959914590000017327566848198604710_" class="st27">
									<g id="Color_00000042007112494460908290000005759267004164420783_" transform="translate(0.000000, 0.000000) ">
										<rect class="st28" width="264" height="280"/>
									</g>
								</g>
							</g>
							<path id="Shadow" class="st29" d="M192.5,99.3c4.9,1.8,9.8,2.7,14.5,2.8l0,0V92c0-20.4-8.3-38.9-21.7-52.3
								C198.7,53.1,207,71.6,207,92v123.6c-12.5-10.4-28.5-16.6-46-16.6h-4v-18.4l0,0c17.5-8.3,30-25.5,31.8-45.7
								C194.6,134,199,129,199,123v-13C199,105.4,196.4,101.3,192.5,99.3z M190.2,98.4c-0.4-0.1-0.8-0.2-1.2-0.3v-0.2
								C189.4,98.1,189.8,98.3,190.2,98.4z M83,155.2c5.6,11.1,14.8,20,26,25.4V199h-4c-7.7,0-15.1,1.2-22,3.4V155.2z"/>
						</g>
					</g>
				</g>
			</g>
		</g>
	</g>
</g>
</svg>
