<?xml version="1.0" encoding="utf-8"?>
<!-- Generator: Adobe Illustrator 26.0.1, SVG Export Plug-In . SVG Version: 6.00 Build 0)  -->
<svg version="1.1" id="Layer_1" xmlns="http://www.w3.org/2000/svg" xmlns:xlink="http://www.w3.org/1999/xlink" x="0px" y="0px"
	 viewBox="0 0 264 280" style="enable-background:new 0 0 264 280;" xml:space="preserve">
<style type="text/css">
	.st0{fill-rule:evenodd;clip-rule:evenodd;fill:#E6E6E6;}
	.st1{filter:url(#Adobe_OpacityMaskFilter);}
	.st2{fill-rule:evenodd;clip-rule:evenodd;fill:#FFFFFF;}
	.st3{mask:url(#react-mask-70581319_00000111161705229653918200000005087837518868186288_);}
	.st4{fill-rule:evenodd;clip-rule:evenodd;fill:#0091AD;}
	.st5{filter:url(#Adobe_OpacityMaskFilter_00000011010492756005901930000008446994633030825097_);}
	.st6{mask:url(#react-mask-70581320_00000036215598973474120730000008095838814909764748_);}
	.st7{fill-rule:evenodd;clip-rule:evenodd;fill:#D0C6AC;}
	.st8{filter:url(#Adobe_OpacityMaskFilter_00000171704832818491492440000012377771013732908978_);}
	.st9{mask:url(#react-mask-70581321_00000035505429478333809520000016246978769214783404_);}
	.st10{fill-rule:evenodd;clip-rule:evenodd;fill:#EDB98A;}
	.st11{filter:url(#Adobe_OpacityMaskFilter_00000031170324512837657110000013596473534854616984_);}
	
		.st12{mask:url(#react-mask-70581321_00000165228562586158549810000000710373816679465650_);fill-rule:evenodd;clip-rule:evenodd;fill-opacity:0.1;}
	.st13{filter:url(#Adobe_OpacityMaskFilter_00000160153878401465925640000017654989121667020416_);}
	.st14{mask:url(#react-mask-70581323_00000062909806513592232310000014217930030165394063_);}
	.st15{fill-rule:evenodd;clip-rule:evenodd;fill:#262E33;}
	.st16{filter:url(#Adobe_OpacityMaskFilter_00000122681882748882908170000010124494726119358609_);}
	.st17{opacity:0.6;mask:url(#react-mask-70581323_00000070798714911094194020000012932467958291534470_);}
	.st18{fill-rule:evenodd;clip-rule:evenodd;fill-opacity:0.16;}
	.st19{fill-rule:evenodd;clip-rule:evenodd;fill:#3A4C5A;}
	.st20{fill-rule:evenodd;clip-rule:evenodd;fill:#2F4351;}
	.st21{fill-rule:evenodd;clip-rule:evenodd;fill-opacity:0.7;}
	.st22{fill-rule:evenodd;clip-rule:evenodd;fill-opacity:0.6;}
	.st23{fill-opacity:0.6;}
	.st24{filter:url(#Adobe_OpacityMaskFilter_00000177447927709885048250000017137387605406414782_);}
	.st25{mask:url(#react-mask-70581324_00000147189477647353694390000011062066259102374330_);}
	.st26{fill-rule:evenodd;clip-rule:evenodd;fill:#ECC797;}
	.st27{filter:url(#Adobe_OpacityMaskFilter_00000122678923832786411410000001350433035255887746_);}
	.st28{mask:url(#react-mask-70581325_00000155833190149495242970000008698178364125063853_);}
	.st29{fill-rule:evenodd;clip-rule:evenodd;fill:#4A312C;}
	.st30{fill:#252C2F;}
</style>
<desc>Created with getavataaars.com</desc>
<g id="Avataaar_00000053536595020441212080000014254644520356658856_">
	<g id="Avataaar_x2F_Circle" transform="translate(-825.000000, -1100.000000)">
		<g transform="translate(825.000000, 1100.000000)">
			<g id="Circle" transform="translate(12.000000, 40.000000)">
				<g id="Circle-Background">
					
						<circle id="react-path-70581316_00000031181633126708892520000003765276112441126819_" class="st0" cx="120" cy="120" r="120"/>
				</g>
				<defs>
					<filter id="Adobe_OpacityMaskFilter" filterUnits="userSpaceOnUse" x="0" y="0" width="240" height="240">
						<feColorMatrix  type="matrix" values="1 0 0 0 0  0 1 0 0 0  0 0 1 0 0  0 0 0 1 0"/>
					</filter>
				</defs>
				
					<mask maskUnits="userSpaceOnUse" x="0" y="0" width="240" height="240" id="react-mask-70581319_00000111161705229653918200000005087837518868186288_">
					<g class="st1">
						
							<circle id="react-path-70581316_00000036943151588976523890000013949110297621772460_" class="st2" cx="120" cy="120" r="120"/>
					</g>
				</mask>
				<g id="Color_x2F_Palette_x2F_Blue-01" class="st3">
					<rect id="_xD83D__xDD8D_Color" class="st4" width="240" height="240"/>
				</g>
			</g>
			<g id="Mask">
			</g>
			<defs>
				
					<filter id="Adobe_OpacityMaskFilter_00000068655591969700302030000002176036763591113122_" filterUnits="userSpaceOnUse" x="0" y="18" width="322" height="298">
					<feColorMatrix  type="matrix" values="1 0 0 0 0  0 1 0 0 0  0 0 1 0 0  0 0 0 1 0"/>
				</filter>
			</defs>
			
				<mask maskUnits="userSpaceOnUse" x="0" y="18" width="322" height="298" id="react-mask-70581320_00000036215598973474120730000008095838814909764748_">
				<g style="filter:url(#Adobe_OpacityMaskFilter_00000068655591969700302030000002176036763591113122_);">
					<path id="react-path-70581317_00000175307044433809160510000018089431575288651163_" class="st2" d="M12,160
						c0,66.3,53.7,120,120,120s120-53.7,120-120h12V0H0v160H12z"/>
				</g>
			</mask>
			<g id="Avataaar" class="st6">
				<g id="Body" transform="translate(32.000000, 36.000000)">
					<g>
						<path id="react-path-70581318_00000042718627127330101430000011008089203407788464_" class="st7" d="M124,144.6V163h4l0,0
							c39.8,0,72,32.2,72,72v9H0v-9c0-39.8,32.2-72,72-72l0,0h4v-18.4c-17.2-8.2-29.6-24.9-31.7-44.7C38.5,99.1,34,94.1,34,88V74
							c0-5.9,4.3-10.9,10-11.8V56l0,0c0-30.9,25.1-56,56-56l0,0l0,0c30.9,0,56,25.1,56,56v6.2c5.7,1,10,5.9,10,11.8v14
							c0,6.1-4.5,11.1-10.3,11.9C153.6,119.7,141.2,136.4,124,144.6z"/>
					</g>
					<defs>
						
							<filter id="Adobe_OpacityMaskFilter_00000013150771039850723050000015673917708688911783_" filterUnits="userSpaceOnUse" x="0" y="0" width="264" height="280">
							<feColorMatrix  type="matrix" values="1 0 0 0 0  0 1 0 0 0  0 0 1 0 0  0 0 0 1 0"/>
						</filter>
					</defs>
					
						<mask maskUnits="userSpaceOnUse" x="0" y="0" width="264" height="280" id="react-mask-70581321_00000035505429478333809520000016246978769214783404_">
						<g style="filter:url(#Adobe_OpacityMaskFilter_00000013150771039850723050000015673917708688911783_);">
							<path id="react-path-70581318_00000101072835923358498990000004380629459282806922_" class="st2" d="M124,144.6V163h4l0,0
								c39.8,0,72,32.2,72,72v9H0v-9c0-39.8,32.2-72,72-72l0,0h4v-18.4c-17.2-8.2-29.6-24.9-31.7-44.7C38.5,99.1,34,94.1,34,88V74
								c0-5.9,4.3-10.9,10-11.8V56l0,0c0-30.9,25.1-56,56-56l0,0l0,0c30.9,0,56,25.1,56,56v6.2c5.7,1,10,5.9,10,11.8v14
								c0,6.1-4.5,11.1-10.3,11.9C153.6,119.7,141.2,136.4,124,144.6z"/>
						</g>
					</mask>
					<g id="Skin_x2F__xD83D__xDC76__xD83C__xDFFD_-03-Brown" class="st9">
						<g id="Color" transform="translate(0.000000, 0.000000)">
							<rect class="st10" width="264" height="280"/>
						</g>
					</g>
					<defs>
						
							<filter id="Adobe_OpacityMaskFilter_00000172422367725494466880000000638241947499424664_" filterUnits="userSpaceOnUse" x="44" y="79" width="112" height="79">
							<feColorMatrix  type="matrix" values="1 0 0 0 0  0 1 0 0 0  0 0 1 0 0  0 0 0 1 0"/>
						</filter>
					</defs>
					
						<mask maskUnits="userSpaceOnUse" x="44" y="79" width="112" height="79" id="react-mask-70581321_00000165228562586158549810000000710373816679465650_">
						<g style="filter:url(#Adobe_OpacityMaskFilter_00000172422367725494466880000000638241947499424664_);">
							<path id="react-path-70581318_00000079454313608578466140000003979893763650511003_" class="st2" d="M124,144.6V163h4l0,0
								c39.8,0,72,32.2,72,72v9H0v-9c0-39.8,32.2-72,72-72l0,0h4v-18.4c-17.2-8.2-29.6-24.9-31.7-44.7C38.5,99.1,34,94.1,34,88V74
								c0-5.9,4.3-10.9,10-11.8V56l0,0c0-30.9,25.1-56,56-56l0,0l0,0c30.9,0,56,25.1,56,56v6.2c5.7,1,10,5.9,10,11.8v14
								c0,6.1-4.5,11.1-10.3,11.9C153.6,119.7,141.2,136.4,124,144.6z"/>
						</g>
					</mask>
					<path id="Neck-Shadow" class="st12" d="M156,79v23c0,30.9-25.1,56-56,56s-56-25.1-56-56V79v15c0,30.9,25.1,56,56,56
						s56-25.1,56-56V79z"/>
				</g>
				<g id="Clothing_x2F_Blazer-_x2B_-Shirt" transform="translate(0.000000, 170.000000)">
					<g id="Shirt" transform="translate(32.000000, 29.000000)">
						<g id="Clothes">
							<path id="react-path-70581322_00000061429442514469762140000015180630917624670376_" class="st0" d="M134,0.3
								c37,3,66,34,66,71.8V81H0v-8.9C0,34,29.6,2.8,67,0.2c0,0.4,0,0.7,0,1.1c0,11.9,15,21.5,33.5,21.5S134,13.2,134,1.3
								C134,1,134,0.6,134,0.3z"/>
						</g>
						<defs>
							
								<filter id="Adobe_OpacityMaskFilter_00000034770976924079717640000003727346325321247638_" filterUnits="userSpaceOnUse" x="-32" y="-29" width="264" height="110">
								<feColorMatrix  type="matrix" values="1 0 0 0 0  0 1 0 0 0  0 0 1 0 0  0 0 0 1 0"/>
							</filter>
						</defs>
						
							<mask maskUnits="userSpaceOnUse" x="-32" y="-29" width="264" height="110" id="react-mask-70581323_00000062909806513592232310000014217930030165394063_">
							<g style="filter:url(#Adobe_OpacityMaskFilter_00000034770976924079717640000003727346325321247638_);">
								<path id="react-path-70581322_00000152986471307130391530000014058375289291903114_" class="st2" d="M134,0.3
									c37,3,66,34,66,71.8V81H0v-8.9C0,34,29.6,2.8,67,0.2c0,0.4,0,0.7,0,1.1c0,11.9,15,21.5,33.5,21.5S134,13.2,134,1.3
									C134,1,134,0.6,134,0.3z"/>
							</g>
						</mask>
						<g id="Color_x2F_Palette_x2F_Black" class="st14">
							
								<g id="_xD83D__xDD8D_Color_00000009584545793547120010000005923399265548135567_" transform="translate(-32.000000, -29.000000)">
								<rect class="st15" width="264" height="110"/>
							</g>
						</g>
						<defs>
							
								<filter id="Adobe_OpacityMaskFilter_00000054959630863773593260000013518911302236023178_" filterUnits="userSpaceOnUse" x="60.9" y="-24.1" width="79.3" height="53.8">
								<feColorMatrix  type="matrix" values="1 0 0 0 0  0 1 0 0 0  0 0 1 0 0  0 0 0 1 0"/>
							</filter>
						</defs>
						
							<mask maskUnits="userSpaceOnUse" x="60.9" y="-24.1" width="79.3" height="53.8" id="react-mask-70581323_00000070798714911094194020000012932467958291534470_">
							<g style="filter:url(#Adobe_OpacityMaskFilter_00000054959630863773593260000013518911302236023178_);">
								<path id="react-path-70581322_00000088822185583848522690000014564033558058049942_" class="st2" d="M134,0.3
									c37,3,66,34,66,71.8V81H0v-8.9C0,34,29.6,2.8,67,0.2c0,0.4,0,0.7,0,1.1c0,11.9,15,21.5,33.5,21.5S134,13.2,134,1.3
									C134,1,134,0.6,134,0.3z"/>
							</g>
						</mask>
						<g id="Shadowy" class="st17">
							<g id="Hola-_xD83D__xDC4B__xD83C__xDFFC_" transform="translate(60.000000, -25.000000)">
								<ellipse class="st18" cx="40.5" cy="27.8" rx="39.6" ry="26.9"/>
							</g>
						</g>
					</g>
					<g id="Blazer" transform="translate(32.000000, 28.000000)">
						<path id="Saco" class="st19" d="M68.8,1.1C30.5,2.8,0,34.4,0,73.1l0,0V82h69.4C66,69.9,64,55.7,64,40.5
							C64,26.2,65.7,12.7,68.8,1.1z M131.6,82H200v-8.9c0-38.3-30-69.7-67.8-71.9c3,11.6,4.8,25,4.8,39.3
							C137,55.7,135,69.9,131.6,82z"/>
						<path id="Pocket-hanky" class="st0" d="M149,58l9.6-7.2l0,0c1.4-1.1,3.4-1.1,4.9,0L170,56L149,58z"/>
						<path id="Wing" class="st20" d="M69,0c-4,19.3-2.3,46.7,5,82H58L44,46l6-9l-6-6L63,1C65,0.4,67,0,69,0z"/>
						<path id="Wing_00000005989501276031025110000014945407968268902311_" class="st20" d="M131,0c4,19.3,2.3,46.7-5,82h16l14-36
							l-6-9l6-6L137,1C135,0.4,133,0,131,0z"/>
					</g>
				</g>
				<g id="Face" transform="translate(76.000000, 82.000000)">
					<g id="Mouth_x2F_Default" transform="translate(2.000000, 52.000000)">
						<path id="Mouth" class="st21" d="M40,15c0,7.7,6.3,14,14,14l0,0c7.7,0,14-6.3,14-14"/>
					</g>
					<g id="Nose_x2F_Default" transform="translate(28.000000, 40.000000)">
						<path id="Nose" class="st18" d="M16,8c0,4.4,5.4,8,12,8l0,0c6.6,0,12-3.6,12-8"/>
					</g>
					<g id="Eyes_x2F_Default-_xD83D__xDE00_" transform="translate(0.000000, 8.000000)">
						<circle id="Eye" class="st22" cx="30" cy="22" r="6"/>
						<circle id="Eye_00000102514516826192698250000005939850543029842320_" class="st22" cx="82" cy="22" r="6"/>
					</g>
					<g id="Eyebrow_x2F_Outline_x2F_Default">
						<g id="I-Browse" transform="translate(12.000000, 6.000000)">
							<path id="Eyebrow" class="st23" d="M3.6,11.2c3.9-5.5,14.6-8.6,23.9-6.3c1.1,0.3,2.2-0.4,2.4-1.5c0.3-1.1-0.4-2.2-1.5-2.4
								C17.7-1.7,5.3,1.9,0.4,8.8c-0.6,0.9-0.4,2.1,0.5,2.8S3,12.1,3.6,11.2z"/>
							<path id="Eyebrow_00000009564695432523027080000007500382989673473185_" class="st23" d="M84.4,11.2
								c-3.9-5.5-14.6-8.6-23.9-6.3c-1.1,0.3-2.2-0.4-2.4-1.5s0.4-2.2,1.5-2.4c10.7-2.6,23.2,0.9,28.1,7.9c0.6,0.9,0.4,2.1-0.5,2.8
								S85,12.1,84.4,11.2z"/>
						</g>
					</g>
				</g>
				<g id="Top">
					<g id="Mask_00000008831827992100279060000006203711058222479027_">
					</g>
					<defs>
						
							<filter id="Adobe_OpacityMaskFilter_00000062893150153353154450000001767811665576331137_" filterUnits="userSpaceOnUse" x="58" y="18" width="264" height="280">
							<feColorMatrix  type="matrix" values="1 0 0 0 0  0 1 0 0 0  0 0 1 0 0  0 0 0 1 0"/>
						</filter>
					</defs>
					
						<mask maskUnits="userSpaceOnUse" x="58" y="18" width="264" height="280" id="react-mask-70581324_00000147189477647353694390000011062066259102374330_">
						<g style="filter:url(#Adobe_OpacityMaskFilter_00000062893150153353154450000001767811665576331137_);">
							<rect id="react-path-70581326_00000033334918651624007060000012393760208431429295_" class="st2" width="264" height="280"/>
						</g>
					</mask>
					<g id="Top_x2F_Long-Hair_x2F_Straight-_x2B_-Strand" class="st25">
						<g transform="translate(-1.000000, 0.000000)">
							<g id="Hair" transform="translate(59.000000, 18.000000)">
								<g>
									<path id="react-path-70581327_00000044154795944795386910000011913849627817345422_" class="st26" d="M8.5,88.7
										C8.2,89.7,8,90.9,8,92v13c0,6,4.4,11,10.2,11.9c1.7,20.2,14.3,37.4,31.8,45.7V181h-4l0,0c-15.6,0-30.1,5-41.9,13.4
										C1.5,186.8,0,178.6,0,170V74l0,0C0,33.1,33.1,0,74,0l0,0l0,0c40.9,0,74,33.1,74,74v96c0,8.6-1.5,16.8-4.1,24.4
										C132.1,186,117.6,181,102,181l0,0h-4v-18.4c17.5-8.3,30-25.5,31.8-45.7C135.6,116,140,111,140,105V92c0-1.7-0.3-3.3-1-4.8
										c-13-2.2-27.5-7.5-41.9-15.7c-12.1-7-22.5-15.2-30.5-23.7c3.4,7.9,7.6,14.8,12.4,20.8C66.4,63,57.8,54.1,53.2,41.9
										c-0.4,0.9-0.8,1.8-1.2,2.8C42.2,66.8,25.6,82.7,8.5,88.7z"/>
								</g>
								<defs>
									
										<filter id="Adobe_OpacityMaskFilter_00000157288014483689934470000002822688541801242517_" filterUnits="userSpaceOnUse" x="0" y="0" width="264" height="280">
										<feColorMatrix  type="matrix" values="1 0 0 0 0  0 1 0 0 0  0 0 1 0 0  0 0 0 1 0"/>
									</filter>
								</defs>
								
									<mask maskUnits="userSpaceOnUse" x="0" y="0" width="264" height="280" id="react-mask-70581325_00000155833190149495242970000008698178364125063853_">
									<g style="filter:url(#Adobe_OpacityMaskFilter_00000157288014483689934470000002822688541801242517_);">
										<path id="react-path-70581327_00000114777351697853766970000001365477687214546062_" class="st2" d="M8.5,88.7
											C8.2,89.7,8,90.9,8,92v13c0,6,4.4,11,10.2,11.9c1.7,20.2,14.3,37.4,31.8,45.7V181h-4l0,0c-15.6,0-30.1,5-41.9,13.4
											C1.5,186.8,0,178.6,0,170V74l0,0C0,33.1,33.1,0,74,0l0,0l0,0c40.9,0,74,33.1,74,74v96c0,8.6-1.5,16.8-4.1,24.4
											C132.1,186,117.6,181,102,181l0,0h-4v-18.4c17.5-8.3,30-25.5,31.8-45.7C135.6,116,140,111,140,105V92c0-1.7-0.3-3.3-1-4.8
											c-13-2.2-27.5-7.5-41.9-15.7c-12.1-7-22.5-15.2-30.5-23.7c3.4,7.9,7.6,14.8,12.4,20.8C66.4,63,57.8,54.1,53.2,41.9
											c-0.4,0.9-0.8,1.8-1.2,2.8C42.2,66.8,25.6,82.7,8.5,88.7z"/>
									</g>
								</mask>
								<g id="Skin_x2F__xD83D__xDC76__xD83C__xDFFD_-03-Brown_00000067943345937844493560000017727798602611793285_" class="st28">
									<g id="Color_00000127005271893671891030000011955337290769606030_" transform="translate(0.000000, 0.000000) ">
										<rect class="st29" width="264" height="280"/>
									</g>
								</g>
							</g>
							<path id="Shadow" class="st18" d="M59,102.4v6.4c19.9-3.1,40.6-20.4,52-46.2c0.4-0.9,0.8-1.8,1.2-2.8
								c4,10.7,11.1,18.8,21.3,24.4c1.5,2.2,3,4.3,4.6,6.3c-12.7-5.5-21.3-14.4-25.9-26.6c-0.4,0.9-0.8,1.8-1.2,2.8
								c-11.5,25.7-32.1,43.1-52,46.2V102.4z M207,101.1v9.1c-15-0.9-33.1-6.5-50.9-16.8c-10.3-5.9-19.3-12.7-26.6-19.9
								c-1.4-2.5-2.6-5.1-3.8-7.9c8,8.5,18.3,16.7,30.5,23.7c17.8,10.2,35.9,15.9,50.9,16.8V101.1z"/>
							<g id="Top_x2F__x5F_Resources_x2F_Prescription-02" transform="translate(62.000000, 85.000000)">
								<g id="Wayfarers" transform="translate(6.000000, 7.000000)">
									<path id="Left" class="st30" d="M34,41h-2.8C17.3,41,9,33.3,9,20.5C9,10.1,10.8,0,32.5,0h2.9C57.2,0,59,10.1,59,20.5
										C59,32.6,48.7,41,34,41z M32.4,6C13,6,13,12.8,13,21.5C13,28.6,16.1,37,31,37h3c12.4,0,21-6.4,21-15.5C55,12.8,55,6,35.6,6
										H32.4z"/>
									<path id="Right" class="st30" d="M96,41h-2.8C79.3,41,71,33.3,71,20.5C71,10.1,72.8,0,94.5,0h2.9
										C119.2,0,121,10.1,121,20.5C121,32.6,110.7,41,96,41z M94.4,6C75,6,75,12.8,75,21.5C75,28.6,78.1,37,93,37h3
										c12.4,0,21-6.4,21-15.5C117,12.8,117,6,97.6,6H94.4z"/>
									<path id="Stuff" class="st30" d="M3,5.8C3.6,5.1,11.2,0,32.5,0c17.9,0,21.6,1.9,27.4,4.7l0.4,0.2c0.4,0.1,2.4,0.8,4.8,0.9
										c2.2-0.1,4-0.7,4.6-0.9C76.2,1.7,82.6,0,97.5,0c21.3,0,28.9,5.1,29.5,5.8c1.6,0,3,1.3,3,2.9v2.9c0,1.6-1.3,2.9-3,2.9
										c0,0-6.9,0-6.9,2.9s-2-4.2-2-5.8V8.7c-3.6-1.4-10.1-3.9-20.7-3.9C85.7,4.8,79.8,6.9,74.7,9l0.1,0.1l0,2l-2.2,5.3l-2.7-1.1
										c-0.2-0.1-0.8-0.3-1.5-0.5c-2-0.5-4.1-0.7-6-0.3c-0.7,0.1-1.3,0.3-1.9,0.6l-2.6,1.3l-2.6-5.2l0.1-2.3l0.1-0.2
										c-4.4-2-8.4-4.1-22.8-4.1c-10.6,0-17.1,2.6-20.7,3.9v2.8c0,1.6-3,8.7-3,5.8S3,14.4,3,14.4c-1.6,0-3-1.3-3-2.9V8.7
										C0,7.1,1.3,5.8,3,5.8z"/>
								</g>
							</g>
						</g>
					</g>
				</g>
			</g>
		</g>
	</g>
</g>
</svg>
