<?xml version="1.0" encoding="utf-8"?>
<!-- Generator: Adobe Illustrator 26.0.1, SVG Export Plug-In . SVG Version: 6.00 Build 0)  -->
<svg version="1.1" id="Layer_1" xmlns="http://www.w3.org/2000/svg" xmlns:xlink="http://www.w3.org/1999/xlink" x="0px" y="0px"
	 viewBox="0 0 264 280" style="enable-background:new 0 0 264 280;" xml:space="preserve">
<style type="text/css">
	.st0{fill-rule:evenodd;clip-rule:evenodd;fill:#E6E6E6;}
	.st1{filter:url(#Adobe_OpacityMaskFilter);}
	.st2{fill-rule:evenodd;clip-rule:evenodd;fill:#FFFFFF;}
	.st3{mask:url(#react-mask-70577164_00000101813859338771103950000006877615786559294136_);}
	.st4{fill-rule:evenodd;clip-rule:evenodd;fill:#0091AD;}
	.st5{filter:url(#Adobe_OpacityMaskFilter_00000101793560789573829590000008210281658610666639_);}
	.st6{mask:url(#react-mask-70577165_00000143585768184471854080000001761341611165921677_);}
	.st7{fill-rule:evenodd;clip-rule:evenodd;fill:#D0C6AC;}
	.st8{filter:url(#Adobe_OpacityMaskFilter_00000005239883701256389780000009934860506654411697_);}
	.st9{mask:url(#react-mask-70577166_00000052073184664843035160000017784056339980894907_);}
	.st10{fill-rule:evenodd;clip-rule:evenodd;fill:#EDB98A;}
	.st11{filter:url(#Adobe_OpacityMaskFilter_00000143615361939766441650000017095613934288372391_);}
	
		.st12{mask:url(#react-mask-70577166_00000141450630673552362310000002332957480851606442_);fill-rule:evenodd;clip-rule:evenodd;fill-opacity:0.1;}
	.st13{fill-rule:evenodd;clip-rule:evenodd;fill:#B7C1DB;}
	.st14{filter:url(#Adobe_OpacityMaskFilter_00000131330291016314045400000001925581197615608455_);}
	.st15{mask:url(#react-mask-70577168_00000175320134106676677290000002385257482827895960_);}
	.st16{fill-rule:evenodd;clip-rule:evenodd;fill:#262E33;}
	.st17{filter:url(#Adobe_OpacityMaskFilter_00000145752093919627168540000013773124132873181337_);}
	
		.st18{mask:url(#react-mask-70577168_00000144338533253435088630000015963972177892090015_);fill-rule:evenodd;clip-rule:evenodd;fill:#F4F4F4;}
	.st19{filter:url(#Adobe_OpacityMaskFilter_00000173145373690909034190000006027124829131073927_);}
	
		.st20{mask:url(#react-mask-70577168_00000023266877364627385320000017915972752726953901_);fill-rule:evenodd;clip-rule:evenodd;fill-opacity:0.16;}
	.st21{fill-rule:evenodd;clip-rule:evenodd;fill-opacity:0.7;}
	.st22{fill-rule:evenodd;clip-rule:evenodd;fill-opacity:0.16;}
	.st23{fill-rule:evenodd;clip-rule:evenodd;fill-opacity:0.6;}
	.st24{fill-opacity:0.6;}
	.st25{filter:url(#Adobe_OpacityMaskFilter_00000056423350144500538100000012813317518850601863_);}
	.st26{mask:url(#react-mask-70577170_00000018208451386643392140000009900230403444730559_);}
	.st27{filter:url(#Adobe_OpacityMaskFilter_00000179620457683949779480000005791266907033680272_);}
	
		.st28{mask:url(#react-mask-70577171_00000164511324635125075630000014175700293458066621_);fill-rule:evenodd;clip-rule:evenodd;fill:#1F333C;}
	.st29{filter:url(#Adobe_OpacityMaskFilter_00000101064566965591064670000009027762329321928111_);}
	
		.st30{mask:url(#react-mask-70577171_00000071560546183874201310000017247612410422194622_);fill-rule:evenodd;clip-rule:evenodd;fill:#1F333C;}
	.st31{filter:url(#Adobe_OpacityMaskFilter_00000070796830887707456230000002721181520343630993_);}
	
		.st32{mask:url(#react-mask-70577171_00000066514775874672604870000011231754700285819303_);fill-rule:evenodd;clip-rule:evenodd;fill:#15232A;}
	.st33{fill-rule:evenodd;clip-rule:evenodd;}
	.st34{fill-rule:evenodd;clip-rule:evenodd;fill:#252C2F;}
</style>
<desc>Created with getavataaars.com</desc>
<g id="Avataaar_00000114059039539635622810000002405635214256041104_">
	<g id="Avataaar_x2F_Circle" transform="translate(-825.000000, -1100.000000)">
		<g transform="translate(825.000000, 1100.000000)">
			<g id="Circle" transform="translate(12.000000, 40.000000)">
				<g id="Circle-Background">
					
						<circle id="react-path-70577161_00000178176182832290092410000007338545979090672016_" class="st0" cx="120" cy="120" r="120"/>
				</g>
				<defs>
					<filter id="Adobe_OpacityMaskFilter" filterUnits="userSpaceOnUse" x="0" y="0" width="240" height="240">
						<feColorMatrix  type="matrix" values="1 0 0 0 0  0 1 0 0 0  0 0 1 0 0  0 0 0 1 0"/>
					</filter>
				</defs>
				
					<mask maskUnits="userSpaceOnUse" x="0" y="0" width="240" height="240" id="react-mask-70577164_00000101813859338771103950000006877615786559294136_">
					<g class="st1">
						
							<circle id="react-path-70577161_00000067919718042083272880000006351944233439585201_" class="st2" cx="120" cy="120" r="120"/>
					</g>
				</mask>
				<g id="Color_x2F_Palette_x2F_Blue-01" class="st3">
					<rect id="_xD83D__xDD8D_Color" class="st4" width="240" height="240"/>
				</g>
			</g>
			<g id="Mask">
			</g>
			<defs>
				
					<filter id="Adobe_OpacityMaskFilter_00000072277260711903511700000010760021131034969486_" filterUnits="userSpaceOnUse" x="0" y="2" width="296" height="314">
					<feColorMatrix  type="matrix" values="1 0 0 0 0  0 1 0 0 0  0 0 1 0 0  0 0 0 1 0"/>
				</filter>
			</defs>
			
				<mask maskUnits="userSpaceOnUse" x="0" y="2" width="296" height="314" id="react-mask-70577165_00000143585768184471854080000001761341611165921677_">
				<g style="filter:url(#Adobe_OpacityMaskFilter_00000072277260711903511700000010760021131034969486_);">
					<path id="react-path-70577162_00000112616416898856623840000008785760279581237430_" class="st2" d="M12,160
						c0,66.3,53.7,120,120,120s120-53.7,120-120h12V0H0v160H12z"/>
				</g>
			</mask>
			<g id="Avataaar" class="st6">
				<g id="Body" transform="translate(32.000000, 36.000000)">
					<g>
						<path id="react-path-70577163_00000047775460192707999170000004702404105334851233_" class="st7" d="M124,144.6V163h4l0,0
							c39.8,0,72,32.2,72,72v9H0v-9c0-39.8,32.2-72,72-72l0,0h4v-18.4c-17.2-8.2-29.6-24.9-31.7-44.7C38.5,99.1,34,94.1,34,88V74
							c0-5.9,4.3-10.9,10-11.8V56l0,0c0-30.9,25.1-56,56-56l0,0l0,0c30.9,0,56,25.1,56,56v6.2c5.7,1,10,5.9,10,11.8v14
							c0,6.1-4.5,11.1-10.3,11.9C153.6,119.7,141.2,136.4,124,144.6z"/>
					</g>
					<defs>
						
							<filter id="Adobe_OpacityMaskFilter_00000181052626423730805220000008428222386285011854_" filterUnits="userSpaceOnUse" x="0" y="0" width="264" height="280">
							<feColorMatrix  type="matrix" values="1 0 0 0 0  0 1 0 0 0  0 0 1 0 0  0 0 0 1 0"/>
						</filter>
					</defs>
					
						<mask maskUnits="userSpaceOnUse" x="0" y="0" width="264" height="280" id="react-mask-70577166_00000052073184664843035160000017784056339980894907_">
						<g style="filter:url(#Adobe_OpacityMaskFilter_00000181052626423730805220000008428222386285011854_);">
							<path id="react-path-70577163_00000029018071340476842900000008441951623149555369_" class="st2" d="M124,144.6V163h4l0,0
								c39.8,0,72,32.2,72,72v9H0v-9c0-39.8,32.2-72,72-72l0,0h4v-18.4c-17.2-8.2-29.6-24.9-31.7-44.7C38.5,99.1,34,94.1,34,88V74
								c0-5.9,4.3-10.9,10-11.8V56l0,0c0-30.9,25.1-56,56-56l0,0l0,0c30.9,0,56,25.1,56,56v6.2c5.7,1,10,5.9,10,11.8v14
								c0,6.1-4.5,11.1-10.3,11.9C153.6,119.7,141.2,136.4,124,144.6z"/>
						</g>
					</mask>
					<g id="Skin_x2F__xD83D__xDC76__xD83C__xDFFD_-03-Brown" class="st9">
						<g id="Color" transform="translate(0.000000, 0.000000)">
							<rect class="st10" width="264" height="280"/>
						</g>
					</g>
					<defs>
						
							<filter id="Adobe_OpacityMaskFilter_00000166665850302251283490000014464570425864629428_" filterUnits="userSpaceOnUse" x="44" y="79" width="112" height="79">
							<feColorMatrix  type="matrix" values="1 0 0 0 0  0 1 0 0 0  0 0 1 0 0  0 0 0 1 0"/>
						</filter>
					</defs>
					
						<mask maskUnits="userSpaceOnUse" x="44" y="79" width="112" height="79" id="react-mask-70577166_00000141450630673552362310000002332957480851606442_">
						<g style="filter:url(#Adobe_OpacityMaskFilter_00000166665850302251283490000014464570425864629428_);">
							<path id="react-path-70577163_00000091700795882647911780000004891120875926773125_" class="st2" d="M124,144.6V163h4l0,0
								c39.8,0,72,32.2,72,72v9H0v-9c0-39.8,32.2-72,72-72l0,0h4v-18.4c-17.2-8.2-29.6-24.9-31.7-44.7C38.5,99.1,34,94.1,34,88V74
								c0-5.9,4.3-10.9,10-11.8V56l0,0c0-30.9,25.1-56,56-56l0,0l0,0c30.9,0,56,25.1,56,56v6.2c5.7,1,10,5.9,10,11.8v14
								c0,6.1-4.5,11.1-10.3,11.9C153.6,119.7,141.2,136.4,124,144.6z"/>
						</g>
					</mask>
					<path id="Neck-Shadow" class="st12" d="M156,79v23c0,30.9-25.1,56-56,56s-56-25.1-56-56V79v15c0,30.9,25.1,56,56,56
						s56-25.1,56-56V79z"/>
				</g>
				<g id="Clothing_x2F_Hoodie" transform="translate(0.000000, 170.000000)">
					<g id="Hoodie">
						<path id="react-path-70577167_00000096741243253819545610000012807015247414671510_" class="st13" d="M108,13.1
							c-17.9,2-31.7,7.5-32,21.6C50.1,45.6,32,71.2,32,101l0,0v9h200v-9c0-29.8-18.1-55.4-44-66.4c-0.3-14.1-14.1-19.6-32-21.6V32
							l0,0c0,13.3-10.7,24-24,24l0,0c-13.3,0-24-10.7-24-24V13.1z"/>
					</g>
					<defs>
						
							<filter id="Adobe_OpacityMaskFilter_00000074411053321548237030000013719758651689397919_" filterUnits="userSpaceOnUse" x="0" y="0" width="264" height="110">
							<feColorMatrix  type="matrix" values="1 0 0 0 0  0 1 0 0 0  0 0 1 0 0  0 0 0 1 0"/>
						</filter>
					</defs>
					
						<mask maskUnits="userSpaceOnUse" x="0" y="0" width="264" height="110" id="react-mask-70577168_00000175320134106676677290000002385257482827895960_">
						<g style="filter:url(#Adobe_OpacityMaskFilter_00000074411053321548237030000013719758651689397919_);">
							<path id="react-path-70577167_00000039841343704190091000000011281067868330473891_" class="st2" d="M108,13.1
								c-17.9,2-31.7,7.5-32,21.6C50.1,45.6,32,71.2,32,101l0,0v9h200v-9c0-29.8-18.1-55.4-44-66.4c-0.3-14.1-14.1-19.6-32-21.6V32
								l0,0c0,13.3-10.7,24-24,24l0,0c-13.3,0-24-10.7-24-24V13.1z"/>
						</g>
					</mask>
					<g id="Color_x2F_Palette_x2F_Gray-01" class="st15">
						<rect id="_xD83D__xDD8D_Color_00000067234364247791122480000006933121567189748414_" class="st16" width="264" height="110"/>
					</g>
					<defs>
						
							<filter id="Adobe_OpacityMaskFilter_00000020396363353181177910000010383702914374822063_" filterUnits="userSpaceOnUse" x="95" y="58.2" width="74" height="51.8">
							<feColorMatrix  type="matrix" values="1 0 0 0 0  0 1 0 0 0  0 0 1 0 0  0 0 0 1 0"/>
						</filter>
					</defs>
					
						<mask maskUnits="userSpaceOnUse" x="95" y="58.2" width="74" height="51.8" id="react-mask-70577168_00000144338533253435088630000015963972177892090015_">
						<g style="filter:url(#Adobe_OpacityMaskFilter_00000020396363353181177910000010383702914374822063_);">
							<path id="react-path-70577167_00000113351678446244334070000010290181866995957936_" class="st2" d="M108,13.1
								c-17.9,2-31.7,7.5-32,21.6C50.1,45.6,32,71.2,32,101l0,0v9h200v-9c0-29.8-18.1-55.4-44-66.4c-0.3-14.1-14.1-19.6-32-21.6V32
								l0,0c0,13.3-10.7,24-24,24l0,0c-13.3,0-24-10.7-24-24V13.1z"/>
						</g>
					</mask>
					<path id="Straps" class="st18" d="M102,61.7V110h-7V58.2C97.2,59.5,99.5,60.7,102,61.7z M169,58.2v40.3c0,1.9-1.6,3.5-3.5,3.5
						s-3.5-1.6-3.5-3.5V61.7C164.5,60.7,166.8,59.5,169,58.2z"/>
					<defs>
						
							<filter id="Adobe_OpacityMaskFilter_00000127012599513876148160000017407835494581003187_" filterUnits="userSpaceOnUse" x="65.5" y="12.7" width="133" height="55.3">
							<feColorMatrix  type="matrix" values="1 0 0 0 0  0 1 0 0 0  0 0 1 0 0  0 0 0 1 0"/>
						</filter>
					</defs>
					
						<mask maskUnits="userSpaceOnUse" x="65.5" y="12.7" width="133" height="55.3" id="react-mask-70577168_00000023266877364627385320000017915972752726953901_">
						<g style="filter:url(#Adobe_OpacityMaskFilter_00000127012599513876148160000017407835494581003187_);">
							<path id="react-path-70577167_00000149356702540620169420000001908801175303168897_" class="st2" d="M108,13.1
								c-17.9,2-31.7,7.5-32,21.6C50.1,45.6,32,71.2,32,101l0,0v9h200v-9c0-29.8-18.1-55.4-44-66.4c-0.3-14.1-14.1-19.6-32-21.6V32
								l0,0c0,13.3-10.7,24-24,24l0,0c-13.3,0-24-10.7-24-24V13.1z"/>
						</g>
					</mask>
					<path id="Shadow" class="st20" d="M91,12.7c-15.1,2.8-25.5,8.5-25.5,19.6C65.5,52,98.5,68,132,68s66.5-16,66.5-35.7
						c0-11.1-10.4-16.7-25.5-19.6c9.1,3.4,15,9,15,18.4c0,20.4-27.8,36.9-56,36.9S76,51.5,76,31.1C76,21.7,81.9,16.1,91,12.7z"/>
				</g>
				<g id="Face" transform="translate(76.000000, 82.000000)">
					<g id="Mouth_x2F_Default" transform="translate(2.000000, 52.000000)">
						<path id="Mouth" class="st21" d="M40,15c0,7.7,6.3,14,14,14l0,0c7.7,0,14-6.3,14-14"/>
					</g>
					<g id="Nose_x2F_Default" transform="translate(28.000000, 40.000000)">
						<path id="Nose" class="st22" d="M16,8c0,4.4,5.4,8,12,8l0,0c6.6,0,12-3.6,12-8"/>
					</g>
					<g id="Eyes_x2F_Happy-_xD83D__xDE01_" transform="translate(0.000000, 8.000000)">
						<path id="Squint" class="st23" d="M16.2,22.4C18,18.6,22.2,16,27,16c4.8,0,9,2.6,10.8,6.4c0.6,1.1-0.2,2-1,1.4
							c-2.5-2.1-5.9-3.4-9.8-3.4c-3.7,0-7.1,1.2-9.6,3.2C16.5,24.3,15.6,23.6,16.2,22.4z"/>
						<path id="Squint_00000103235634805227984710000013353508733963572915_" class="st23" d="M74.2,22.4C76,18.6,80.2,16,85,16
							c4.8,0,9,2.6,10.8,6.4c0.6,1.1-0.2,2-1,1.4c-2.5-2.1-5.9-3.4-9.8-3.4c-3.7,0-7.1,1.2-9.6,3.2C74.5,24.3,73.6,23.6,74.2,22.4z"
							/>
					</g>
					<g id="Eyebrow_x2F_Outline_x2F_Default">
						<g id="I-Browse" transform="translate(12.000000, 6.000000)">
							<path id="Eyebrow" class="st24" d="M3.6,11.2c3.9-5.5,14.6-8.6,23.9-6.3c1.1,0.3,2.2-0.4,2.4-1.5c0.3-1.1-0.4-2.2-1.5-2.4
								C17.7-1.7,5.3,1.9,0.4,8.8c-0.6,0.9-0.4,2.1,0.5,2.8S3,12.1,3.6,11.2z"/>
							<path id="Eyebrow_00000176756116910773606250000002675833257387753138_" class="st24" d="M84.4,11.2
								c-3.9-5.5-14.6-8.6-23.9-6.3c-1.1,0.3-2.2-0.4-2.4-1.5s0.4-2.2,1.5-2.4c10.7-2.6,23.2,0.9,28.1,7.9c0.6,0.9,0.4,2.1-0.5,2.8
								S85,12.1,84.4,11.2z"/>
						</g>
					</g>
				</g>
				<g id="Top">
					<g id="Mask_00000040542532079911465050000000833985936231635847_">
					</g>
					<defs>
						
							<filter id="Adobe_OpacityMaskFilter_00000088115436174753851490000000609214100929410714_" filterUnits="userSpaceOnUse" x="10" y="2" width="244" height="143">
							<feColorMatrix  type="matrix" values="1 0 0 0 0  0 1 0 0 0  0 0 1 0 0  0 0 0 1 0"/>
						</filter>
					</defs>
					
						<mask maskUnits="userSpaceOnUse" x="10" y="2" width="244" height="143" id="react-mask-70577170_00000018208451386643392140000009900230403444730559_">
						<g style="filter:url(#Adobe_OpacityMaskFilter_00000088115436174753851490000000609214100929410714_);">
							<rect id="react-path-70577173_00000106114922336385890680000017488359440193593522_" class="st2" width="264" height="280"/>
						</g>
					</mask>
					<g id="Top_x2F_Accesories_x2F_Hat" class="st26">
						<g transform="translate(-1.000000, 0.000000)">
							<g id="Hat" transform="translate(1.000000, 0.000000)">
								<g id="Mask-Hair">
								</g>
								<defs>
									
										<filter id="Adobe_OpacityMaskFilter_00000040561160758823924470000005482884358622710927_" filterUnits="userSpaceOnUse" x="75" y="2" width="115" height="73">
										<feColorMatrix  type="matrix" values="1 0 0 0 0  0 1 0 0 0  0 0 1 0 0  0 0 0 1 0"/>
									</filter>
								</defs>
								
									<mask maskUnits="userSpaceOnUse" x="75" y="2" width="115" height="73" id="react-mask-70577171_00000164511324635125075630000014175700293458066621_">
									<g style="filter:url(#Adobe_OpacityMaskFilter_00000040561160758823924470000005482884358622710927_);">
										<path id="react-path-70577172_00000134941163011231252100000014449808740062460597_" class="st2" d="M156,180.6
											c17.5-8.3,30-25.5,31.8-45.7C193.6,134,198,129,198,123v-13c0-5.9-4.3-10.9-10-11.8V92c0-7.9-1.7-15.5-4.6-22.4
											c-9.9-16.6-94-15.8-102.7-0.2C77.7,76.4,76,84,76,92v6.2c-5.7,1-10,5.9-10,11.8v13c0,6,4.4,11,10.2,11.9
											c1.7,20.2,14.3,37.4,31.8,45.7V199h-4l0,0c-39.8,0-72,32.2-72,72v9h200v-9c0-39.8-32.2-72-72-72h-4V180.6z M0,0h264v280H0
											V0z"/>
									</g>
								</mask>
								<path class="st28" d="M123.2,2h18.6l0,0c18.8,0,35,13.1,39.1,31.4L190,75H75l9.1-41.6l0,0C88.1,15.1,104.4,2,123.2,2z"/>
								<defs>
									
										<filter id="Adobe_OpacityMaskFilter_00000049204258542379861350000007904545314347914659_" filterUnits="userSpaceOnUse" x="10" y="30" width="244" height="115">
										<feColorMatrix  type="matrix" values="1 0 0 0 0  0 1 0 0 0  0 0 1 0 0  0 0 0 1 0"/>
									</filter>
								</defs>
								
									<mask maskUnits="userSpaceOnUse" x="10" y="30" width="244" height="115" id="react-mask-70577171_00000071560546183874201310000017247612410422194622_">
									<g style="filter:url(#Adobe_OpacityMaskFilter_00000049204258542379861350000007904545314347914659_);">
										<path id="react-path-70577172_00000116948918497302740860000018184686500613158069_" class="st2" d="M156,180.6
											c17.5-8.3,30-25.5,31.8-45.7C193.6,134,198,129,198,123v-13c0-5.9-4.3-10.9-10-11.8V92c0-7.9-1.7-15.5-4.6-22.4
											c-9.9-16.6-94-15.8-102.7-0.2C77.7,76.4,76,84,76,92v6.2c-5.7,1-10,5.9-10,11.8v13c0,6,4.4,11,10.2,11.9
											c1.7,20.2,14.3,37.4,31.8,45.7V199h-4l0,0c-39.8,0-72,32.2-72,72v9h200v-9c0-39.8-32.2-72-72-72h-4V180.6z M0,0h264v280H0
											V0z"/>
									</g>
								</mask>
								<ellipse id="Hipster" class="st30" cx="132" cy="87.5" rx="122" ry="57.5"/>
								<defs>
									
										<filter id="Adobe_OpacityMaskFilter_00000067942664921112273850000011062082889911160738_" filterUnits="userSpaceOnUse" x="70" y="57" width="124" height="50">
										<feColorMatrix  type="matrix" values="1 0 0 0 0  0 1 0 0 0  0 0 1 0 0  0 0 0 1 0"/>
									</filter>
								</defs>
								
									<mask maskUnits="userSpaceOnUse" x="70" y="57" width="124" height="50" id="react-mask-70577171_00000066514775874672604870000011231754700285819303_">
									<g style="filter:url(#Adobe_OpacityMaskFilter_00000067942664921112273850000011062082889911160738_);">
										<path id="react-path-70577172_00000166644173630733194740000004904899658196898203_" class="st2" d="M156,180.6
											c17.5-8.3,30-25.5,31.8-45.7C193.6,134,198,129,198,123v-13c0-5.9-4.3-10.9-10-11.8V92c0-7.9-1.7-15.5-4.6-22.4
											c-9.9-16.6-94-15.8-102.7-0.2C77.7,76.4,76,84,76,92v6.2c-5.7,1-10,5.9-10,11.8v13c0,6,4.4,11,10.2,11.9
											c1.7,20.2,14.3,37.4,31.8,45.7V199h-4l0,0c-39.8,0-72,32.2-72,72v9h200v-9c0-39.8-32.2-72-72-72h-4V180.6z M0,0h264v280H0
											V0z"/>
									</g>
								</mask>
								<ellipse id="Very" class="st32" cx="132" cy="82" rx="62" ry="25"/>
							</g>
							<g id="Top_x2F__x5F_Resources_x2F_Round" transform="translate(62.000000, 85.000000)">
								<g id="Lennon-Glasses">
									<g>
										<path id="react-path-70577174" class="st33" d="M80.5,16.4C84.4,8.5,92.6,3,102,3c8.9,0,16.7,4.9,20.8,12.1
											c0.2-0.1,0.4-0.1,0.7-0.1h8c1.4,0,2.5,1.1,2.5,2.5s-1.1,2.5-2.5,2.5H125c0.7,2.2,1,4.6,1,7c0,13.3-10.7,24-24,24
											S78,40.3,78,27c0-1.4,0.1-2.8,0.4-4.2c-0.1-4.4-3.4-7.8-7.5-7.8c-3.7,0-6.9,2.9-7.4,6.8c0.4,1.7,0.6,3.4,0.6,5.2
											c0,13.3-10.7,24-24,24S16,40.3,16,27c0-2.4,0.4-4.8,1-7h-6.5C9.1,20,8,18.9,8,17.5S9.1,15,10.5,15l0,0h8
											c0.2,0,0.4,0,0.7,0.1C23.3,7.9,31.1,3,40,3c9.4,0,17.5,5.3,21.4,13.2c2.1-3.1,5.5-5.2,9.4-5.2
											C74.9,11,78.4,13.1,80.5,16.4z M40,47c11,0,20-9,20-20S51,7,40,7s-20,9-20,20S29,47,40,47z M102,47c11,0,20-9,20-20
											s-9-20-20-20s-20,9-20,20S91,47,102,47z"/>
									</g>
									<g>
										<path id="react-path-70577174_00000088819379369700186660000006786962452681348517_" class="st34" d="M80.5,16.4
											C84.4,8.5,92.6,3,102,3c8.9,0,16.7,4.9,20.8,12.1c0.2-0.1,0.4-0.1,0.7-0.1h8c1.4,0,2.5,1.1,2.5,2.5s-1.1,2.5-2.5,2.5H125
											c0.7,2.2,1,4.6,1,7c0,13.3-10.7,24-24,24S78,40.3,78,27c0-1.4,0.1-2.8,0.4-4.2c-0.1-4.4-3.4-7.8-7.5-7.8
											c-3.7,0-6.9,2.9-7.4,6.8c0.4,1.7,0.6,3.4,0.6,5.2c0,13.3-10.7,24-24,24S16,40.3,16,27c0-2.4,0.4-4.8,1-7h-6.5
											C9.1,20,8,18.9,8,17.5S9.1,15,10.5,15l0,0h8c0.2,0,0.4,0,0.7,0.1C23.3,7.9,31.1,3,40,3c9.4,0,17.5,5.3,21.4,13.2
											c2.1-3.1,5.5-5.2,9.4-5.2C74.9,11,78.4,13.1,80.5,16.4z M40,47c11,0,20-9,20-20S51,7,40,7s-20,9-20,20S29,47,40,47z
											 M102,47c11,0,20-9,20-20s-9-20-20-20s-20,9-20,20S91,47,102,47z"/>
									</g>
								</g>
							</g>
						</g>
					</g>
				</g>
			</g>
		</g>
	</g>
</g>
</svg>
