<?xml version="1.0" encoding="utf-8"?>
<!-- Generator: Adobe Illustrator 26.0.1, SVG Export Plug-In . SVG Version: 6.00 Build 0)  -->
<svg version="1.1" id="Layer_1" xmlns="http://www.w3.org/2000/svg" xmlns:xlink="http://www.w3.org/1999/xlink" x="0px" y="0px"
	 viewBox="0 0 264 280" style="enable-background:new 0 0 264 280;" xml:space="preserve">
<style type="text/css">
	.st0{fill-rule:evenodd;clip-rule:evenodd;fill:#E6E6E6;}
	.st1{filter:url(#Adobe_OpacityMaskFilter);}
	.st2{fill-rule:evenodd;clip-rule:evenodd;fill:#FFFFFF;}
	.st3{mask:url(#react-mask-70580553_00000114074906837998240930000009823069341473015732_);}
	.st4{fill-rule:evenodd;clip-rule:evenodd;fill:#0091AD;}
	.st5{filter:url(#Adobe_OpacityMaskFilter_00000039132057193938493170000017582701901937224850_);}
	.st6{mask:url(#react-mask-70580554_00000150787649393783548950000015902662251963985809_);}
	.st7{fill-rule:evenodd;clip-rule:evenodd;fill:#D0C6AC;}
	.st8{filter:url(#Adobe_OpacityMaskFilter_00000111173761721724536760000002857188866268622271_);}
	.st9{mask:url(#react-mask-70580555_00000028322910728827616660000000715362172233394841_);}
	.st10{fill-rule:evenodd;clip-rule:evenodd;fill:#EDB98A;}
	.st11{filter:url(#Adobe_OpacityMaskFilter_00000156560763117789691840000017781859815712184724_);}
	
		.st12{mask:url(#react-mask-70580555_00000020360930053658579990000009036045220578332857_);fill-rule:evenodd;clip-rule:evenodd;fill-opacity:0.1;}
	.st13{filter:url(#Adobe_OpacityMaskFilter_00000085208655731434046940000003110994979781880455_);}
	.st14{mask:url(#react-mask-70580557_00000036961833328797786970000011319624713926574771_);}
	.st15{fill-rule:evenodd;clip-rule:evenodd;fill:#262E33;}
	.st16{fill-rule:evenodd;clip-rule:evenodd;fill:#3A4C5A;}
	.st17{fill-rule:evenodd;clip-rule:evenodd;fill:#2F4351;}
	.st18{fill-rule:evenodd;clip-rule:evenodd;fill:#F2F2F2;}
	.st19{fill-rule:evenodd;clip-rule:evenodd;fill-opacity:0.7;}
	.st20{fill-rule:evenodd;clip-rule:evenodd;fill-opacity:0.16;}
	.st21{fill-rule:evenodd;clip-rule:evenodd;fill-opacity:0.6;}
	.st22{fill-opacity:0.6;}
	.st23{filter:url(#Adobe_OpacityMaskFilter_00000076601690051174360630000012822184166174077115_);}
	.st24{mask:url(#react-mask-70580559_00000164493474415648238230000004693744964451872403_);}
	.st25{filter:url(#Adobe_OpacityMaskFilter_00000047023674257282996510000009120539787057051786_);}
	
		.st26{mask:url(#react-mask-70580560_00000029040951774564269250000003664398222958290070_);fill-rule:evenodd;clip-rule:evenodd;fill:#1F333C;}
	.st27{filter:url(#Adobe_OpacityMaskFilter_00000142874949185554126800000014908001420571473031_);}
	
		.st28{mask:url(#react-mask-70580560_00000088133811277843821870000000102220124276059269_);fill-rule:evenodd;clip-rule:evenodd;fill:#1F333C;}
	.st29{filter:url(#Adobe_OpacityMaskFilter_00000025412008279147489000000007037928198863759235_);}
	
		.st30{mask:url(#react-mask-70580560_00000110439570453674173050000000046320377606257587_);fill-rule:evenodd;clip-rule:evenodd;fill:#15232A;}
	.st31{fill-rule:evenodd;clip-rule:evenodd;fill:#331B0C;}
	.st32{filter:url(#Adobe_OpacityMaskFilter_00000136394464251862192550000005161755517039252639_);}
	.st33{mask:url(#react-mask-70580563_00000083051769089070268670000010995145987534920852_);}
	.st34{fill-rule:evenodd;clip-rule:evenodd;fill:#2C1B18;}
	.st35{fill:#252C2F;}
</style>
<desc>Created with getavataaars.com</desc>
<g id="Avataaar_00000129195474887361404920000011712726378648085895_">
	<g id="Avataaar_x2F_Circle" transform="translate(-825.000000, -1100.000000)">
		<g transform="translate(825.000000, 1100.000000)">
			<g id="Circle" transform="translate(12.000000, 40.000000)">
				<g id="Circle-Background">
					
						<circle id="react-path-70580550_00000018194557124815712360000008194454584983089558_" class="st0" cx="120" cy="120" r="120"/>
				</g>
				<defs>
					<filter id="Adobe_OpacityMaskFilter" filterUnits="userSpaceOnUse" x="0" y="0" width="240" height="240">
						<feColorMatrix  type="matrix" values="1 0 0 0 0  0 1 0 0 0  0 0 1 0 0  0 0 0 1 0"/>
					</filter>
				</defs>
				
					<mask maskUnits="userSpaceOnUse" x="0" y="0" width="240" height="240" id="react-mask-70580553_00000114074906837998240930000009823069341473015732_">
					<g class="st1">
						
							<circle id="react-path-70580550_00000124864077287614458500000017940905690837276598_" class="st2" cx="120" cy="120" r="120"/>
					</g>
				</mask>
				<g id="Color_x2F_Palette_x2F_Blue-01" class="st3">
					<rect id="_xD83D__xDD8D_Color" class="st4" width="240" height="240"/>
				</g>
			</g>
			<g id="Mask">
			</g>
			<defs>
				
					<filter id="Adobe_OpacityMaskFilter_00000142860112846724609230000010100071393130147457_" filterUnits="userSpaceOnUse" x="0" y="2" width="296" height="314">
					<feColorMatrix  type="matrix" values="1 0 0 0 0  0 1 0 0 0  0 0 1 0 0  0 0 0 1 0"/>
				</filter>
			</defs>
			
				<mask maskUnits="userSpaceOnUse" x="0" y="2" width="296" height="314" id="react-mask-70580554_00000150787649393783548950000015902662251963985809_">
				<g style="filter:url(#Adobe_OpacityMaskFilter_00000142860112846724609230000010100071393130147457_);">
					<path id="react-path-70580551_00000089535413811541330860000011515672338113747347_" class="st2" d="M12,160
						c0,66.3,53.7,120,120,120s120-53.7,120-120h12V0H0v160H12z"/>
				</g>
			</mask>
			<g id="Avataaar" class="st6">
				<g id="Body" transform="translate(32.000000, 36.000000)">
					<g>
						<path id="react-path-70580552_00000118370704479005829740000014863478528024574598_" class="st7" d="M124,144.6V163h4l0,0
							c39.8,0,72,32.2,72,72v9H0v-9c0-39.8,32.2-72,72-72l0,0h4v-18.4c-17.2-8.2-29.6-24.9-31.7-44.7C38.5,99.1,34,94.1,34,88V74
							c0-5.9,4.3-10.9,10-11.8V56l0,0c0-30.9,25.1-56,56-56l0,0l0,0c30.9,0,56,25.1,56,56v6.2c5.7,1,10,5.9,10,11.8v14
							c0,6.1-4.5,11.1-10.3,11.9C153.6,119.7,141.2,136.4,124,144.6z"/>
					</g>
					<defs>
						
							<filter id="Adobe_OpacityMaskFilter_00000156574727641886630870000012237199608149709977_" filterUnits="userSpaceOnUse" x="0" y="0" width="264" height="280">
							<feColorMatrix  type="matrix" values="1 0 0 0 0  0 1 0 0 0  0 0 1 0 0  0 0 0 1 0"/>
						</filter>
					</defs>
					
						<mask maskUnits="userSpaceOnUse" x="0" y="0" width="264" height="280" id="react-mask-70580555_00000028322910728827616660000000715362172233394841_">
						<g style="filter:url(#Adobe_OpacityMaskFilter_00000156574727641886630870000012237199608149709977_);">
							<path id="react-path-70580552_00000174561286276638530930000006867751503469212561_" class="st2" d="M124,144.6V163h4l0,0
								c39.8,0,72,32.2,72,72v9H0v-9c0-39.8,32.2-72,72-72l0,0h4v-18.4c-17.2-8.2-29.6-24.9-31.7-44.7C38.5,99.1,34,94.1,34,88V74
								c0-5.9,4.3-10.9,10-11.8V56l0,0c0-30.9,25.1-56,56-56l0,0l0,0c30.9,0,56,25.1,56,56v6.2c5.7,1,10,5.9,10,11.8v14
								c0,6.1-4.5,11.1-10.3,11.9C153.6,119.7,141.2,136.4,124,144.6z"/>
						</g>
					</mask>
					<g id="Skin_x2F__xD83D__xDC76__xD83C__xDFFD_-03-Brown" class="st9">
						<g id="Color" transform="translate(0.000000, 0.000000)">
							<rect class="st10" width="264" height="280"/>
						</g>
					</g>
					<defs>
						
							<filter id="Adobe_OpacityMaskFilter_00000037670020661733195430000002195548231821378948_" filterUnits="userSpaceOnUse" x="44" y="79" width="112" height="79">
							<feColorMatrix  type="matrix" values="1 0 0 0 0  0 1 0 0 0  0 0 1 0 0  0 0 0 1 0"/>
						</filter>
					</defs>
					
						<mask maskUnits="userSpaceOnUse" x="44" y="79" width="112" height="79" id="react-mask-70580555_00000020360930053658579990000009036045220578332857_">
						<g style="filter:url(#Adobe_OpacityMaskFilter_00000037670020661733195430000002195548231821378948_);">
							<path id="react-path-70580552_00000145752747460998121770000008239294916573541268_" class="st2" d="M124,144.6V163h4l0,0
								c39.8,0,72,32.2,72,72v9H0v-9c0-39.8,32.2-72,72-72l0,0h4v-18.4c-17.2-8.2-29.6-24.9-31.7-44.7C38.5,99.1,34,94.1,34,88V74
								c0-5.9,4.3-10.9,10-11.8V56l0,0c0-30.9,25.1-56,56-56l0,0l0,0c30.9,0,56,25.1,56,56v6.2c5.7,1,10,5.9,10,11.8v14
								c0,6.1-4.5,11.1-10.3,11.9C153.6,119.7,141.2,136.4,124,144.6z"/>
						</g>
					</mask>
					<path id="Neck-Shadow" class="st12" d="M156,79v23c0,30.9-25.1,56-56,56s-56-25.1-56-56V79v15c0,30.9,25.1,56,56,56
						s56-25.1,56-56V79z"/>
				</g>
				<g id="Clothing_x2F_Blazer-_x2B_-Sweater" transform="translate(0.000000, 170.000000)">
					<g id="Clothes">
						<path id="react-path-70580556_00000034057594106883730200000008280048267917620892_" class="st0" d="M105.2,29.1H104l0,0
							c-39.8,0-72,32.2-72,72v8.9h200v-8.9c0-39.8-32.2-72-72-72l0,0h-1.2c0.1,1,0.2,2,0.2,3c0,13.8-12.1,25-27,25s-27-11.2-27-25
							C105,31,105.1,30,105.2,29.1z"/>
					</g>
					<defs>
						
							<filter id="Adobe_OpacityMaskFilter_00000094602390428298988260000007730646503900710278_" filterUnits="userSpaceOnUse" x="0" y="0" width="264" height="110">
							<feColorMatrix  type="matrix" values="1 0 0 0 0  0 1 0 0 0  0 0 1 0 0  0 0 0 1 0"/>
						</filter>
					</defs>
					
						<mask maskUnits="userSpaceOnUse" x="0" y="0" width="264" height="110" id="react-mask-70580557_00000036961833328797786970000011319624713926574771_">
						<g style="filter:url(#Adobe_OpacityMaskFilter_00000094602390428298988260000007730646503900710278_);">
							<path id="react-path-70580556_00000084500497107033410370000013934120251976959622_" class="st2" d="M105.2,29.1H104l0,0
								c-39.8,0-72,32.2-72,72v8.9h200v-8.9c0-39.8-32.2-72-72-72l0,0h-1.2c0.1,1,0.2,2,0.2,3c0,13.8-12.1,25-27,25s-27-11.2-27-25
								C105,31,105.1,30,105.2,29.1z"/>
						</g>
					</mask>
					<g id="Color_x2F_Palette_x2F_Black" class="st14">
						<rect id="_xD83D__xDD8D_Color_00000127031457708523034140000006776872409413408694_" class="st15" width="264" height="110"/>
					</g>
					<g id="Blazer" transform="translate(32.000000, 28.000000)">
						<path id="Saco" class="st16" d="M68.8,1.1C30.5,2.8,0,34.4,0,73.1V82h69.4C66,69.9,64,55.7,64,40.5
							C64,26.2,65.7,12.7,68.8,1.1z M131.6,82H200v-8.9c0-38.3-30-69.7-67.8-71.9c3,11.6,4.8,25,4.8,39.3
							C137,55.7,135,69.9,131.6,82z"/>
						<path id="Pocket-hanky" class="st0" d="M149,58l9.6-7.2l0,0c1.4-1.1,3.4-1.1,4.9,0L170,56L149,58z"/>
						<path id="Wing" class="st17" d="M69,0c-4,19.3-2.3,46.7,5,82H58L44,46l6-9l-6-6L63,1C65,0.4,67,0,69,0z"/>
						<path id="Wing_00000160889259054755776880000006006056423858653369_" class="st17" d="M131,0c4,19.3,2.3,46.7-5,82h16l14-36
							l-6-9l6-6L137,1C135,0.4,133,0,131,0z"/>
					</g>
					<path id="Collar" class="st18" d="M156,21.5c6.8,4.6,11,11.1,11,18.3c0,7.4-4.4,14.1-11.5,18.7l-5.9-4.7l-4.6,0.3l1-3.2
						l-0.1-0.1c6.1-3.1,10.1-8.3,10.1-14.1V21.5z M108,21.5c-6.8,4.6-11,11.1-11,18.3c0,7.4,4.4,14.1,11.5,18.7l5.9-4.7l4.6,0.3
						l-1-3.2l0.1-0.1C112,47.9,108,42.7,108,36.9V21.5z"/>
				</g>
				<g id="Face" transform="translate(76.000000, 82.000000)">
					<g id="Mouth_x2F_Default" transform="translate(2.000000, 52.000000)">
						<path id="Mouth" class="st19" d="M40,15c0,7.7,6.3,14,14,14l0,0c7.7,0,14-6.3,14-14"/>
					</g>
					<g id="Nose_x2F_Default" transform="translate(28.000000, 40.000000)">
						<path id="Nose" class="st20" d="M16,8c0,4.4,5.4,8,12,8l0,0c6.6,0,12-3.6,12-8"/>
					</g>
					<g id="Eyes_x2F_Happy-_xD83D__xDE01_" transform="translate(0.000000, 8.000000)">
						<path id="Squint" class="st21" d="M16.2,22.4C18,18.6,22.2,16,27,16c4.8,0,9,2.6,10.8,6.4c0.6,1.1-0.2,2-1,1.4
							c-2.5-2.1-5.9-3.4-9.8-3.4c-3.7,0-7.1,1.2-9.6,3.2C16.5,24.3,15.6,23.6,16.2,22.4z"/>
						<path id="Squint_00000124839815026960264530000002354534471997360000_" class="st21" d="M74.2,22.4C76,18.6,80.2,16,85,16
							c4.8,0,9,2.6,10.8,6.4c0.6,1.1-0.2,2-1,1.4c-2.5-2.1-5.9-3.4-9.8-3.4c-3.7,0-7.1,1.2-9.6,3.2C74.5,24.3,73.6,23.6,74.2,22.4z"
							/>
					</g>
					<g id="Eyebrow_x2F_Outline_x2F_Default">
						<g id="I-Browse" transform="translate(12.000000, 6.000000)">
							<path id="Eyebrow" class="st22" d="M3.6,11.2c3.9-5.5,14.6-8.6,23.9-6.3c1.1,0.3,2.2-0.4,2.4-1.5c0.3-1.1-0.4-2.2-1.5-2.4
								C17.7-1.7,5.3,1.9,0.4,8.8c-0.6,0.9-0.4,2.1,0.5,2.8S3,12.1,3.6,11.2z"/>
							<path id="Eyebrow_00000119838822107240575400000014116891755547181735_" class="st22" d="M84.4,11.2
								c-3.9-5.5-14.6-8.6-23.9-6.3c-1.1,0.3-2.2-0.4-2.4-1.5s0.4-2.2,1.5-2.4c10.7-2.6,23.2,0.9,28.1,7.9c0.6,0.9,0.4,2.1-0.5,2.8
								S85,12.1,84.4,11.2z"/>
						</g>
					</g>
				</g>
				<g id="Top">
					<g id="Mask_00000051376517493214648960000012568726164139836046_">
					</g>
					<defs>
						
							<filter id="Adobe_OpacityMaskFilter_00000008858400506541441760000014922947495094171521_" filterUnits="userSpaceOnUse" x="10" y="2" width="270" height="314">
							<feColorMatrix  type="matrix" values="1 0 0 0 0  0 1 0 0 0  0 0 1 0 0  0 0 0 1 0"/>
						</filter>
					</defs>
					
						<mask maskUnits="userSpaceOnUse" x="10" y="2" width="270" height="314" id="react-mask-70580559_00000164493474415648238230000004693744964451872403_">
						<g style="filter:url(#Adobe_OpacityMaskFilter_00000008858400506541441760000014922947495094171521_);">
							<rect id="react-path-70580562_00000106139958752304781840000003451392135704742309_" class="st2" width="264" height="280"/>
						</g>
					</mask>
					<g id="Top_x2F_Accesories_x2F_Hat" class="st24">
						<g transform="translate(-1.000000, 0.000000)">
							<g id="Hat" transform="translate(1.000000, 0.000000)">
								<g id="Mask-Hair">
								</g>
								<defs>
									
										<filter id="Adobe_OpacityMaskFilter_00000179625367806214742510000002680017470820114313_" filterUnits="userSpaceOnUse" x="75" y="2" width="115" height="73">
										<feColorMatrix  type="matrix" values="1 0 0 0 0  0 1 0 0 0  0 0 1 0 0  0 0 0 1 0"/>
									</filter>
								</defs>
								
									<mask maskUnits="userSpaceOnUse" x="75" y="2" width="115" height="73" id="react-mask-70580560_00000029040951774564269250000003664398222958290070_">
									<g style="filter:url(#Adobe_OpacityMaskFilter_00000179625367806214742510000002680017470820114313_);">
										<path id="react-path-70580561_00000056393176170712245530000016807558154404519854_" class="st2" d="M156,180.6
											c17.5-8.3,30-25.5,31.8-45.7C193.6,134,198,129,198,123v-13c0-5.9-4.3-10.9-10-11.8V92c0-7.9-1.7-15.5-4.6-22.4
											c-9.9-16.6-94-15.8-102.7-0.2C77.7,76.4,76,84,76,92v6.2c-5.7,1-10,5.9-10,11.8v13c0,6,4.4,11,10.2,11.9
											c1.7,20.2,14.3,37.4,31.8,45.7V199h-4l0,0c-39.8,0-72,32.2-72,72v9h200v-9c0-39.8-32.2-72-72-72h-4V180.6z M0,0h264v280H0
											V0z"/>
									</g>
								</mask>
								<path class="st26" d="M123.2,2h18.6l0,0c18.8,0,35,13.1,39.1,31.4L190,75H75l9.1-41.6l0,0C88.1,15.1,104.4,2,123.2,2z"/>
								<defs>
									
										<filter id="Adobe_OpacityMaskFilter_00000149362266633876617080000012960906811941113219_" filterUnits="userSpaceOnUse" x="10" y="30" width="244" height="115">
										<feColorMatrix  type="matrix" values="1 0 0 0 0  0 1 0 0 0  0 0 1 0 0  0 0 0 1 0"/>
									</filter>
								</defs>
								
									<mask maskUnits="userSpaceOnUse" x="10" y="30" width="244" height="115" id="react-mask-70580560_00000088133811277843821870000000102220124276059269_">
									<g style="filter:url(#Adobe_OpacityMaskFilter_00000149362266633876617080000012960906811941113219_);">
										<path id="react-path-70580561_00000102517594026980587970000004979029392893905080_" class="st2" d="M156,180.6
											c17.5-8.3,30-25.5,31.8-45.7C193.6,134,198,129,198,123v-13c0-5.9-4.3-10.9-10-11.8V92c0-7.9-1.7-15.5-4.6-22.4
											c-9.9-16.6-94-15.8-102.7-0.2C77.7,76.4,76,84,76,92v6.2c-5.7,1-10,5.9-10,11.8v13c0,6,4.4,11,10.2,11.9
											c1.7,20.2,14.3,37.4,31.8,45.7V199h-4l0,0c-39.8,0-72,32.2-72,72v9h200v-9c0-39.8-32.2-72-72-72h-4V180.6z M0,0h264v280H0
											V0z"/>
									</g>
								</mask>
								<ellipse id="Hipster" class="st28" cx="132" cy="87.5" rx="122" ry="57.5"/>
								<defs>
									
										<filter id="Adobe_OpacityMaskFilter_00000044889779694990132040000014000689552346920105_" filterUnits="userSpaceOnUse" x="70" y="57" width="124" height="50">
										<feColorMatrix  type="matrix" values="1 0 0 0 0  0 1 0 0 0  0 0 1 0 0  0 0 0 1 0"/>
									</filter>
								</defs>
								
									<mask maskUnits="userSpaceOnUse" x="70" y="57" width="124" height="50" id="react-mask-70580560_00000110439570453674173050000000046320377606257587_">
									<g style="filter:url(#Adobe_OpacityMaskFilter_00000044889779694990132040000014000689552346920105_);">
										<path id="react-path-70580561_00000127012272046069803380000017906507690174975159_" class="st2" d="M156,180.6
											c17.5-8.3,30-25.5,31.8-45.7C193.6,134,198,129,198,123v-13c0-5.9-4.3-10.9-10-11.8V92c0-7.9-1.7-15.5-4.6-22.4
											c-9.9-16.6-94-15.8-102.7-0.2C77.7,76.4,76,84,76,92v6.2c-5.7,1-10,5.9-10,11.8v13c0,6,4.4,11,10.2,11.9
											c1.7,20.2,14.3,37.4,31.8,45.7V199h-4l0,0c-39.8,0-72,32.2-72,72v9h200v-9c0-39.8-32.2-72-72-72h-4V180.6z M0,0h264v280H0
											V0z"/>
									</g>
								</mask>
								<ellipse id="Very" class="st30" cx="132" cy="82" rx="62" ry="25"/>
							</g>
							<g id="Facial-Hair_x2F_Beard-Light" transform="translate(49.000000, 72.000000)">
								<g id="Lite-Beard">
									<path id="react-path-70580564_00000117637978312522329040000010571899552994841741_" class="st31" d="M101.4,98.2
										c-2.5,2.3-5.2,3.3-8.6,2.6c-0.6-0.1-3-4.5-8.9-4.5c-5.9,0-8.3,4.4-8.9,4.5c-3.4,0.7-6.1-0.3-8.6-2.6
										c-4.7-4.3-8.7-10.3-6.3-16.7c1.2-3.4,3.2-7.1,6.9-8.2c3.9-1.2,9.3,0,13.3-0.8c1.3-0.3,2.7-0.7,3.6-1.5
										c0.9,0.8,2.3,1.2,3.6,1.5c3.9,0.8,9.4-0.4,13.3,0.8c3.6,1.1,5.6,4.8,6.9,8.2C110.1,87.9,106.2,93.9,101.4,98.2 M140.1,26
										c-3.4,8.4-2.1,18.9-2.7,27.7c-0.5,7.2-2,17.9-8.4,22.5c-3.3,2.4-9.2,6.3-13.4,5.2c-2.9-0.8-3.2-9.2-7.1-12.3
										c-4.4-3.6-9.8-5.1-15.3-4.9c-2.4,0.1-7.2,0.1-9.1,1.9c-2-1.8-6.8-1.8-9.1-1.9c-5.5-0.2-10.9,1.3-15.3,4.9
										c-3.8,3.1-4.2,11.5-7.1,12.3c-4.3,1.1-10.2-2.9-13.4-5.2c-6.4-4.6-7.9-15.4-8.4-22.5C30,44.9,31.3,34.4,27.9,26
										c-1.7,0-0.6,16.1-0.6,16.1v20.4c0,15.3,9.6,38.2,30.8,46.9C63.3,111.5,75,115,84,115s20.7-3.1,25.9-5.3
										c21.2-8.7,30.7-32,30.8-47.2V42.1C140.6,42.1,141.7,26,140.1,26"/>
								</g>
								<defs>
									
										<filter id="Adobe_OpacityMaskFilter_00000168838817298533616290000000712636538755719615_" filterUnits="userSpaceOnUse" x="-32" y="0" width="264" height="244">
										<feColorMatrix  type="matrix" values="1 0 0 0 0  0 1 0 0 0  0 0 1 0 0  0 0 0 1 0"/>
									</filter>
								</defs>
								
									<mask maskUnits="userSpaceOnUse" x="-32" y="0" width="264" height="244" id="react-mask-70580563_00000083051769089070268670000010995145987534920852_">
									<g style="filter:url(#Adobe_OpacityMaskFilter_00000168838817298533616290000000712636538755719615_);">
										<path id="react-path-70580564_00000092451147494188114960000011324049880464348335_" class="st2" d="M101.4,98.2
											c-2.5,2.3-5.2,3.3-8.6,2.6c-0.6-0.1-3-4.5-8.9-4.5c-5.9,0-8.3,4.4-8.9,4.5c-3.4,0.7-6.1-0.3-8.6-2.6
											c-4.7-4.3-8.7-10.3-6.3-16.7c1.2-3.4,3.2-7.1,6.9-8.2c3.9-1.2,9.3,0,13.3-0.8c1.3-0.3,2.7-0.7,3.6-1.5
											c0.9,0.8,2.3,1.2,3.6,1.5c3.9,0.8,9.4-0.4,13.3,0.8c3.6,1.1,5.6,4.8,6.9,8.2C110.1,87.9,106.2,93.9,101.4,98.2 M140.1,26
											c-3.4,8.4-2.1,18.9-2.7,27.7c-0.5,7.2-2,17.9-8.4,22.5c-3.3,2.4-9.2,6.3-13.4,5.2c-2.9-0.8-3.2-9.2-7.1-12.3
											c-4.4-3.6-9.8-5.1-15.3-4.9c-2.4,0.1-7.2,0.1-9.1,1.9c-2-1.8-6.8-1.8-9.1-1.9c-5.5-0.2-10.9,1.3-15.3,4.9
											c-3.8,3.1-4.2,11.5-7.1,12.3c-4.3,1.1-10.2-2.9-13.4-5.2c-6.4-4.6-7.9-15.4-8.4-22.5C30,44.9,31.3,34.4,27.9,26
											c-1.7,0-0.6,16.1-0.6,16.1v20.4c0,15.3,9.6,38.2,30.8,46.9C63.3,111.5,75,115,84,115s20.7-3.1,25.9-5.3
											c21.2-8.7,30.7-32,30.8-47.2V42.1C140.6,42.1,141.7,26,140.1,26"/>
									</g>
								</mask>
								<g id="Color_x2F_Hair_x2F_Brown" class="st33">
									<g id="Color_00000075872103414571419060000017268397926565014719_" transform="translate(-32.000000, 0.000000)">
										<rect class="st34" width="264" height="244"/>
									</g>
								</g>
							</g>
							<g id="Top_x2F__x5F_Resources_x2F_Prescription-02" transform="translate(62.000000, 85.000000)">
								<g id="Wayfarers" transform="translate(6.000000, 7.000000)">
									<path id="Left" class="st35" d="M34,41h-2.8C17.3,41,9,33.3,9,20.5C9,10.1,10.8,0,32.5,0h2.9C57.2,0,59,10.1,59,20.5
										C59,32.6,48.7,41,34,41z M32.4,6C13,6,13,12.8,13,21.5C13,28.6,16.1,37,31,37h3c12.4,0,21-6.4,21-15.5C55,12.8,55,6,35.6,6
										H32.4z"/>
									<path id="Right" class="st35" d="M96,41h-2.8C79.3,41,71,33.3,71,20.5C71,10.1,72.8,0,94.5,0h2.9
										C119.2,0,121,10.1,121,20.5C121,32.6,110.7,41,96,41z M94.4,6C75,6,75,12.8,75,21.5C75,28.6,78.1,37,93,37h3
										c12.4,0,21-6.4,21-15.5C117,12.8,117,6,97.6,6H94.4z"/>
									<path id="Stuff" class="st35" d="M3,5.8C3.6,5.1,11.2,0,32.5,0c17.9,0,21.6,1.9,27.4,4.7l0.4,0.2c0.4,0.1,2.4,0.8,4.8,0.9
										c2.2-0.1,4-0.7,4.6-0.9C76.2,1.7,82.6,0,97.5,0c21.3,0,28.9,5.1,29.5,5.8c1.6,0,3,1.3,3,2.9v2.9c0,1.6-1.3,2.9-3,2.9
										c0,0-6.9,0-6.9,2.9s-2-4.2-2-5.8V8.7c-3.6-1.4-10.1-3.9-20.7-3.9C85.7,4.8,79.8,6.9,74.7,9l0.1,0.1l0,2l-2.2,5.3l-2.7-1.1
										c-0.2-0.1-0.8-0.3-1.5-0.5c-2-0.5-4.1-0.7-6-0.3c-0.7,0.1-1.3,0.3-1.9,0.6l-2.6,1.3l-2.6-5.2l0.1-2.3l0.1-0.2
										c-4.4-2-8.4-4.1-22.8-4.1c-10.6,0-17.1,2.6-20.7,3.9v2.8c0,1.6-3,8.7-3,5.8S3,14.4,3,14.4c-1.6,0-3-1.3-3-2.9V8.7
										C0,7.1,1.3,5.8,3,5.8z"/>
								</g>
							</g>
						</g>
					</g>
				</g>
			</g>
		</g>
	</g>
</g>
</svg>
